<?xml version="1.0" encoding="UTF-8"?>
<svg version="1.1" xmlns="http://www.w3.org/2000/svg" width="1200" height="1200">
<path d="M0,0 L1200,0 L1200,1200 L0,1200 Z " fill="#FEFEFE" transform="translate(0,0)"/>
<path d="M0,0 L2,0 L2,1 L3,1 L3,2 L5,2 L5,3 L6,3 L6,4 L8,4 L8,5 L9,5 L9,6 L10,6 L10,7 L11,7 L11,8 L13,8 L13,9 L14,9 L14,10 L15,10 L15,11 L16,11 L16,12 L17,12 L17,13 L18,13 L18,14 L19,14 L19,15 L20,15 L20,16 L21,16 L21,17 L22,17 L22,18 L23,18 L23,19 L24,19 L24,20 L25,20 L25,21 L26,21 L26,22 L27,22 L27,23 L28,23 L28,25 L29,25 L29,26 L30,26 L30,27 L31,27 L31,28 L32,28 L32,30 L33,30 L33,31 L34,31 L34,32 L35,32 L35,34 L36,34 L36,35 L37,35 L37,36 L38,36 L38,38 L39,38 L39,40 L40,40 L40,42 L41,42 L41,44 L42,44 L42,45 L43,45 L43,47 L44,47 L44,49 L45,49 L45,51 L46,51 L46,54 L47,54 L47,56 L48,56 L48,58 L49,58 L49,61 L50,61 L50,64 L51,64 L51,66 L52,66 L52,70 L53,70 L53,73 L54,73 L54,76 L55,76 L55,82 L56,82 L56,89 L57,89 L57,95 L58,95 L58,119 L57,119 L57,126 L56,126 L56,132 L55,132 L55,137 L54,137 L54,140 L53,140 L53,144 L52,144 L52,148 L51,148 L51,150 L50,150 L50,153 L49,153 L49,156 L48,156 L48,158 L47,158 L47,160 L46,160 L46,163 L45,163 L45,165 L44,165 L44,167 L43,167 L43,169 L42,169 L42,171 L41,171 L41,172 L40,172 L40,174 L39,174 L39,176 L38,176 L38,177 L37,177 L37,178 L36,178 L36,180 L35,180 L35,181 L34,181 L34,182 L33,182 L33,184 L32,184 L32,186 L31,186 L31,187 L30,187 L30,188 L29,188 L29,189 L28,189 L28,191 L27,191 L27,192 L26,192 L26,193 L25,193 L25,194 L24,194 L24,195 L23,195 L23,196 L22,196 L22,197 L21,197 L21,198 L20,198 L20,199 L19,199 L19,200 L18,200 L18,201 L17,201 L17,202 L16,202 L16,203 L15,203 L15,204 L14,204 L14,205 L13,205 L13,206 L12,206 L12,207 L11,207 L11,208 L9,208 L9,209 L8,209 L8,210 L7,210 L7,211 L5,211 L5,209 L4,209 L4,207 L3,207 L3,205 L2,205 L2,202 L1,202 L1,201 L0,201 L0,198 L-1,198 L-1,196 L-2,196 L-2,195 L-3,195 L-3,194 L-4,194 L-4,192 L-5,192 L-5,190 L-6,190 L-6,189 L-7,189 L-7,187 L-8,187 L-8,185 L-9,185 L-9,184 L-10,184 L-10,182 L-11,182 L-11,180 L-12,180 L-12,179 L-13,179 L-13,177 L-14,177 L-14,176 L-15,176 L-15,174 L-16,174 L-16,108 L-17,108 L-17,81 L-15,81 L-15,80 L-14,80 L-14,79 L-12,79 L-12,78 L-10,78 L-10,77 L-9,77 L-9,76 L-7,76 L-7,75 L-6,75 L-6,74 L-5,74 L-5,73 L-4,73 L-4,72 L-3,72 L-3,71 L-2,71 L-2,70 L-1,70 L-1,69 L0,69 L0,67 L1,67 L1,65 L2,65 L2,63 L3,63 L3,61 L4,61 L4,60 L5,60 L5,56 L6,56 L6,54 L7,54 L7,49 L8,49 L8,26 L7,26 L7,21 L6,21 L6,18 L5,18 L5,13 L4,13 L4,10 L3,10 L3,8 L2,8 L2,5 L1,5 L1,2 L0,2 Z " fill="#EE800F" transform="translate(672,412)"/>
<path d="M0,0 L1,0 L1,8 L0,8 L0,14 L-1,14 L-1,19 L-2,19 L-2,26 L-3,26 L-3,32 L-4,32 L-4,42 L-5,42 L-5,58 L-4,58 L-4,64 L-3,64 L-3,70 L-2,70 L-2,72 L-1,72 L-1,74 L0,74 L0,76 L1,76 L1,78 L2,78 L2,80 L3,80 L3,81 L4,81 L4,82 L5,82 L5,83 L6,83 L6,84 L7,84 L7,85 L8,85 L8,86 L9,86 L9,87 L11,87 L11,88 L12,88 L12,89 L14,89 L14,90 L16,90 L16,91 L17,91 L17,128 L16,128 L16,129 L14,129 L14,130 L12,130 L12,131 L10,131 L10,132 L8,132 L8,133 L6,133 L6,134 L4,134 L4,135 L2,135 L2,136 L0,136 L0,137 L-1,137 L-1,138 L-3,138 L-3,139 L-5,139 L-5,140 L-7,140 L-7,141 L-8,141 L-8,142 L-9,142 L-9,143 L-11,143 L-11,144 L-13,144 L-13,145 L-14,145 L-14,146 L-16,146 L-16,147 L-17,147 L-17,148 L-18,148 L-18,149 L-20,149 L-20,150 L-21,150 L-21,151 L-23,151 L-23,152 L-24,152 L-24,153 L-25,153 L-25,154 L-27,154 L-27,155 L-28,155 L-28,156 L-29,156 L-29,157 L-30,157 L-30,158 L-32,158 L-32,159 L-33,159 L-33,160 L-34,160 L-34,161 L-35,161 L-35,162 L-37,162 L-37,164 L-39,164 L-39,165 L-40,165 L-40,166 L-41,166 L-41,167 L-42,167 L-42,168 L-43,168 L-43,169 L-44,169 L-44,170 L-45,170 L-45,171 L-46,171 L-46,172 L-47,172 L-47,173 L-48,173 L-48,174 L-50,174 L-50,175 L-51,175 L-51,176 L-52,176 L-52,177 L-53,177 L-53,178 L-54,178 L-54,179 L-55,179 L-55,180 L-57,180 L-57,179 L-58,179 L-58,177 L-59,177 L-59,175 L-60,175 L-60,174 L-61,174 L-61,171 L-62,171 L-62,169 L-63,169 L-63,166 L-64,166 L-64,164 L-65,164 L-65,162 L-66,162 L-66,158 L-67,158 L-67,155 L-68,155 L-68,152 L-69,152 L-69,148 L-70,148 L-70,143 L-71,143 L-71,139 L-72,139 L-72,134 L-73,134 L-73,100 L-72,100 L-72,94 L-71,94 L-71,88 L-70,88 L-70,86 L-69,86 L-69,81 L-68,81 L-68,78 L-67,78 L-67,75 L-66,75 L-66,72 L-65,72 L-65,70 L-64,70 L-64,66 L-63,66 L-63,64 L-62,64 L-62,62 L-61,62 L-61,60 L-60,60 L-60,58 L-59,58 L-59,56 L-58,56 L-58,54 L-57,54 L-57,53 L-56,53 L-56,50 L-55,50 L-55,49 L-54,49 L-54,47 L-53,47 L-53,46 L-52,46 L-52,45 L-51,45 L-51,43 L-50,43 L-50,42 L-49,42 L-49,41 L-48,41 L-48,39 L-47,39 L-47,37 L-46,37 L-46,36 L-45,36 L-45,35 L-44,35 L-44,34 L-43,34 L-43,33 L-42,33 L-42,32 L-41,32 L-41,31 L-40,31 L-40,29 L-39,29 L-39,28 L-38,28 L-38,27 L-37,27 L-37,26 L-35,26 L-35,25 L-34,25 L-34,24 L-33,24 L-33,23 L-32,23 L-32,22 L-31,22 L-31,20 L-29,20 L-29,19 L-28,19 L-28,18 L-27,18 L-27,17 L-26,17 L-26,16 L-25,16 L-25,15 L-24,15 L-24,14 L-22,14 L-22,13 L-21,13 L-21,12 L-20,12 L-20,11 L-18,11 L-18,10 L-16,10 L-16,8 L-14,8 L-14,7 L-12,7 L-12,6 L-10,6 L-10,5 L-8,5 L-8,4 L-6,4 L-6,3 L-4,3 L-4,2 L-2,2 L-2,1 L0,1 Z " fill="#ED8010" transform="translate(544,402)"/>
<path d="M0,0 L5,0 L5,1 L7,1 L7,2 L37,2 L37,3 L42,3 L42,4 L47,4 L47,5 L53,5 L53,6 L57,6 L57,9 L55,9 L55,10 L54,10 L54,11 L53,11 L53,13 L52,13 L52,14 L51,14 L51,15 L50,15 L50,16 L49,16 L49,18 L48,18 L48,20 L47,20 L47,22 L46,22 L46,24 L45,24 L45,26 L44,26 L44,28 L43,28 L43,30 L42,30 L42,33 L41,33 L41,38 L40,38 L40,40 L39,40 L39,44 L38,44 L38,49 L37,49 L37,73 L38,73 L38,76 L39,76 L39,80 L40,80 L40,82 L41,82 L41,86 L42,86 L42,88 L44,88 L44,90 L45,90 L45,92 L46,92 L46,93 L47,93 L47,94 L48,94 L48,95 L49,95 L49,97 L50,97 L50,98 L51,98 L51,99 L52,99 L52,100 L54,100 L54,101 L55,101 L55,102 L57,102 L57,103 L59,103 L59,104 L61,104 L61,159 L60,159 L60,171 L59,171 L59,170 L58,170 L58,169 L57,169 L57,168 L55,168 L55,167 L54,167 L54,165 L53,165 L53,164 L52,164 L52,163 L51,163 L51,162 L50,162 L50,161 L49,161 L49,160 L48,160 L48,159 L47,159 L47,158 L46,158 L46,157 L45,157 L45,156 L44,156 L44,155 L43,155 L43,154 L42,154 L42,153 L41,153 L41,152 L40,152 L40,151 L39,151 L39,150 L37,150 L37,149 L36,149 L36,148 L35,148 L35,147 L33,147 L33,146 L32,146 L32,145 L31,145 L31,144 L29,144 L29,143 L27,143 L27,141 L25,141 L25,140 L23,140 L23,139 L21,139 L21,138 L19,138 L19,137 L14,137 L14,136 L0,136 L0,137 L-3,137 L-3,105 L-2,105 L-2,104 L0,104 L0,103 L2,103 L2,102 L4,102 L4,101 L5,101 L5,100 L6,100 L6,99 L7,99 L7,98 L8,98 L8,97 L9,97 L9,96 L10,96 L10,95 L11,95 L11,94 L12,94 L12,92 L13,92 L13,90 L14,90 L14,89 L15,89 L15,86 L16,86 L16,82 L17,82 L17,78 L18,78 L18,72 L19,72 L19,56 L18,56 L18,49 L17,49 L17,40 L16,40 L16,33 L15,33 L15,32 L13,32 L13,35 L12,35 L12,21 L11,21 L11,20 L10,20 L10,7 L8,7 L8,4 L7,4 L7,69 L6,69 L6,71 L5,71 L5,72 L3,72 L3,73 L1,73 L1,74 L0,74 L0,76 L-2,76 L-2,75 L-3,75 L-3,76 L-6,76 L-6,73 L-5,73 L-5,70 L-6,70 L-6,71 L-7,71 L-7,72 L-8,72 L-8,73 L-9,73 L-9,72 L-10,72 L-10,73 L-11,73 L-11,74 L-12,74 L-12,73 L-13,73 L-13,72 L-14,72 L-14,68 L-17,68 L-17,69 L-18,69 L-18,70 L-19,70 L-19,71 L-20,71 L-20,72 L-22,72 L-22,73 L-25,73 L-25,72 L-27,72 L-27,71 L-26,71 L-26,69 L-27,69 L-27,10 L-23,10 L-23,9 L-22,9 L-22,8 L-20,8 L-20,9 L-18,9 L-18,63 L-17,63 L-17,64 L-16,64 L-16,52 L-15,52 L-15,6 L-16,6 L-16,8 L-17,8 L-17,4 L-14,4 L-14,3 L-12,3 L-12,2 L-5,2 L-5,5 L-4,5 L-4,6 L-3,6 L-3,4 L-2,4 L-2,3 L0,3 Z M-5,6 L-5,7 L-4,7 L-4,6 Z " fill="#ED8110" transform="translate(579,388)"/>
<path d="M0,0 L22,0 L22,1 L24,1 L24,2 L27,2 L27,3 L30,3 L30,4 L32,4 L32,5 L34,5 L34,6 L35,6 L35,7 L37,7 L37,8 L38,8 L38,9 L40,9 L40,10 L41,10 L41,11 L42,11 L42,12 L43,12 L43,13 L44,13 L44,14 L45,14 L45,15 L46,15 L46,16 L47,16 L47,17 L48,17 L48,19 L49,19 L49,20 L50,20 L50,22 L51,22 L51,23 L52,23 L52,25 L53,25 L53,27 L54,27 L54,30 L55,30 L55,33 L56,33 L56,36 L57,36 L57,56 L56,56 L56,61 L55,61 L55,64 L54,64 L54,67 L53,67 L53,70 L52,70 L52,71 L51,71 L51,73 L50,73 L50,75 L49,75 L49,76 L48,76 L48,77 L47,77 L47,80 L48,80 L48,81 L49,81 L49,82 L50,82 L50,84 L51,84 L51,85 L52,85 L52,86 L53,86 L53,87 L54,87 L54,88 L55,88 L55,89 L56,89 L56,90 L57,90 L57,91 L58,91 L58,92 L59,92 L59,93 L60,93 L60,95 L59,95 L59,96 L58,96 L58,97 L57,97 L57,98 L56,98 L56,99 L55,99 L55,100 L54,100 L54,101 L53,101 L53,102 L52,102 L52,103 L50,103 L50,104 L48,104 L48,103 L47,103 L47,102 L46,102 L46,101 L45,101 L45,100 L44,100 L44,99 L43,99 L43,98 L42,98 L42,97 L41,97 L41,96 L40,96 L40,94 L38,94 L38,92 L37,92 L37,91 L36,91 L36,90 L32,90 L32,91 L30,91 L30,92 L28,92 L28,93 L25,93 L25,94 L22,94 L22,95 L17,95 L17,96 L3,96 L3,95 L-2,95 L-2,94 L-6,94 L-6,93 L-9,93 L-9,92 L-11,92 L-11,91 L-13,91 L-13,90 L-15,90 L-15,89 L-17,89 L-17,88 L-18,88 L-18,87 L-19,87 L-19,86 L-20,86 L-20,85 L-21,85 L-21,84 L-23,84 L-23,83 L-24,83 L-24,82 L-25,82 L-25,80 L-26,80 L-26,79 L-27,79 L-27,78 L-28,78 L-28,76 L-29,76 L-29,75 L-30,75 L-30,74 L-31,74 L-31,72 L-32,72 L-32,69 L-33,69 L-33,67 L-34,67 L-34,64 L-35,64 L-35,61 L-36,61 L-36,56 L-37,56 L-37,37 L-36,37 L-36,33 L-35,33 L-35,30 L-34,30 L-34,29 L-33,29 L-33,26 L-32,26 L-32,24 L-31,24 L-31,22 L-30,22 L-30,20 L-29,20 L-29,19 L-28,19 L-28,18 L-27,18 L-27,16 L-26,16 L-26,15 L-25,15 L-25,14 L-24,14 L-24,13 L-23,13 L-23,12 L-22,12 L-22,11 L-21,11 L-21,10 L-20,10 L-20,9 L-18,9 L-18,8 L-17,8 L-17,7 L-15,7 L-15,6 L-14,6 L-14,5 L-12,5 L-12,4 L-10,4 L-10,3 L-8,3 L-8,2 L-5,2 L-5,1 L0,1 Z " fill="#050505" transform="translate(314,701)"/>
<path d="M0,0 L47,0 L47,1 L51,1 L51,2 L53,2 L53,3 L56,3 L56,4 L57,4 L57,5 L59,5 L59,6 L60,6 L60,7 L62,7 L62,8 L63,8 L63,9 L64,9 L64,10 L65,10 L65,12 L66,12 L66,14 L67,14 L67,15 L68,15 L68,18 L69,18 L69,32 L68,32 L68,34 L67,34 L67,37 L66,37 L66,38 L65,38 L65,39 L64,39 L64,40 L63,40 L63,41 L62,41 L62,42 L61,42 L61,43 L60,43 L60,44 L58,44 L58,45 L57,45 L57,46 L59,46 L59,47 L61,47 L61,48 L62,48 L62,49 L64,49 L64,50 L66,50 L66,51 L67,51 L67,52 L68,52 L68,54 L69,54 L69,55 L70,55 L70,56 L71,56 L71,60 L72,60 L72,76 L71,76 L71,77 L70,77 L70,79 L69,79 L69,81 L68,81 L68,82 L67,82 L67,84 L66,84 L66,85 L65,85 L65,86 L63,86 L63,87 L62,87 L62,88 L60,88 L60,89 L58,89 L58,90 L56,90 L56,91 L53,91 L53,92 L47,92 L47,93 L0,93 Z " fill="#040404" transform="translate(675,702)"/>
<path d="M0,0 L11,0 L11,1 L14,1 L14,2 L15,2 L15,3 L18,3 L18,4 L19,4 L19,5 L21,5 L21,6 L23,6 L23,7 L24,7 L24,8 L25,8 L25,9 L26,9 L26,10 L27,10 L27,11 L28,11 L28,12 L30,12 L30,13 L31,13 L31,14 L32,14 L32,15 L33,15 L33,16 L34,16 L34,17 L35,17 L35,18 L36,18 L36,19 L37,19 L37,20 L38,20 L38,21 L39,21 L39,22 L40,22 L40,23 L41,23 L41,24 L42,24 L42,25 L43,25 L43,26 L44,26 L44,27 L45,27 L45,28 L46,28 L46,30 L47,30 L47,31 L48,31 L48,32 L49,32 L49,33 L50,33 L50,34 L51,34 L51,36 L52,36 L52,37 L53,37 L53,38 L54,38 L54,39 L55,39 L55,40 L56,40 L56,42 L57,42 L57,54 L55,54 L55,53 L54,53 L54,52 L52,52 L52,51 L51,51 L51,50 L49,50 L49,49 L47,49 L47,48 L45,48 L45,47 L43,47 L43,46 L36,46 L36,45 L29,45 L29,46 L23,46 L23,47 L19,47 L19,48 L17,48 L17,52 L18,52 L18,53 L19,53 L19,54 L20,54 L20,55 L22,55 L22,56 L23,56 L23,57 L25,57 L25,58 L27,58 L27,59 L31,59 L31,60 L35,60 L35,61 L39,61 L39,62 L45,62 L45,63 L51,63 L51,64 L56,64 L56,101 L55,101 L55,106 L49,106 L49,107 L45,107 L45,108 L39,108 L39,109 L32,109 L32,110 L8,110 L8,109 L-1,109 L-1,85 L-2,85 L-2,53 L-3,53 L-3,29 L-4,29 L-4,1 L0,1 Z " fill="#ED8110" transform="translate(581,539)"/>
<path d="M0,0 L3,0 L3,28 L2,28 L2,52 L1,52 L1,76 L0,76 L0,93 L-3,93 L-3,92 L-5,92 L-5,91 L-8,91 L-8,90 L-11,90 L-11,89 L-13,89 L-13,88 L-15,88 L-15,86 L-17,86 L-17,85 L-20,85 L-20,84 L-22,84 L-22,83 L-24,83 L-24,82 L-25,82 L-25,81 L-27,81 L-27,80 L-28,80 L-28,79 L-30,79 L-30,78 L-31,78 L-31,77 L-32,77 L-32,76 L-34,76 L-34,75 L-36,75 L-36,74 L-37,74 L-37,73 L-38,73 L-38,72 L-39,72 L-39,71 L-40,71 L-40,70 L-42,70 L-42,69 L-43,69 L-43,68 L-44,68 L-44,67 L-45,67 L-45,66 L-46,66 L-46,65 L-47,65 L-47,64 L-48,64 L-48,63 L-49,63 L-49,62 L-50,62 L-50,61 L-51,61 L-51,60 L-52,60 L-52,59 L-53,59 L-53,57 L-54,57 L-54,56 L-55,56 L-55,55 L-56,55 L-56,54 L-57,54 L-57,53 L-58,53 L-58,52 L-59,52 L-59,51 L-60,51 L-60,50 L-61,50 L-61,48 L-60,48 L-60,47 L-59,47 L-59,46 L-58,46 L-58,45 L-57,45 L-57,44 L-56,44 L-56,43 L-55,43 L-55,42 L-54,42 L-54,41 L-53,41 L-53,40 L-52,40 L-52,39 L-51,39 L-51,38 L-50,38 L-50,37 L-49,37 L-49,36 L-48,36 L-48,35 L-47,35 L-47,34 L-46,34 L-46,33 L-45,33 L-45,32 L-44,32 L-44,31 L-43,31 L-43,30 L-42,30 L-42,29 L-40,29 L-40,28 L-38,28 L-38,27 L-37,27 L-37,25 L-35,25 L-35,24 L-34,24 L-34,23 L-33,23 L-33,22 L-32,22 L-32,21 L-30,21 L-30,20 L-29,20 L-29,19 L-28,19 L-28,18 L-27,18 L-27,17 L-26,17 L-26,16 L-24,16 L-24,15 L-23,15 L-23,14 L-22,14 L-22,13 L-20,13 L-20,12 L-19,12 L-19,11 L-17,11 L-17,10 L-16,10 L-16,9 L-14,9 L-14,8 L-13,8 L-13,7 L-11,7 L-11,6 L-9,6 L-9,5 L-7,5 L-7,4 L-5,4 L-5,3 L-4,3 L-4,2 L-2,2 L-2,1 L0,1 Z " fill="#ED8111" transform="translate(557,548)"/>
<path d="M0,0 L18,0 L18,1 L20,1 L20,2 L23,2 L23,3 L25,3 L25,4 L27,4 L27,5 L29,5 L29,6 L30,6 L30,7 L31,7 L31,8 L32,8 L32,9 L34,9 L34,10 L35,10 L35,12 L36,12 L36,13 L37,13 L37,15 L38,15 L38,17 L39,17 L39,19 L40,19 L40,21 L41,21 L41,25 L42,25 L42,27 L43,27 L43,41 L-8,41 L-8,42 L-7,42 L-7,45 L-6,45 L-6,47 L-5,47 L-5,49 L-4,49 L-4,50 L-3,50 L-3,51 L-2,51 L-2,52 L0,52 L0,53 L1,53 L1,54 L5,54 L5,55 L16,55 L16,54 L18,54 L18,53 L20,53 L20,52 L21,52 L21,51 L22,51 L22,50 L23,50 L23,49 L24,49 L24,48 L25,48 L25,47 L28,47 L28,48 L30,48 L30,49 L31,49 L31,50 L33,50 L33,51 L36,51 L36,52 L37,52 L37,53 L40,53 L40,55 L39,55 L39,56 L38,56 L38,57 L37,57 L37,58 L36,58 L36,60 L35,60 L35,61 L34,61 L34,62 L32,62 L32,63 L31,63 L31,64 L30,64 L30,65 L28,65 L28,66 L27,66 L27,67 L23,67 L23,68 L20,68 L20,69 L15,69 L15,70 L3,70 L3,69 L-1,69 L-1,68 L-5,68 L-5,67 L-7,67 L-7,66 L-8,66 L-8,65 L-10,65 L-10,64 L-12,64 L-12,63 L-13,63 L-13,62 L-14,62 L-14,61 L-15,61 L-15,60 L-16,60 L-16,59 L-17,59 L-17,58 L-18,58 L-18,57 L-19,57 L-19,56 L-20,56 L-20,54 L-21,54 L-21,52 L-22,52 L-22,50 L-23,50 L-23,47 L-24,47 L-24,45 L-25,45 L-25,42 L-26,42 L-26,29 L-25,29 L-25,24 L-24,24 L-24,22 L-23,22 L-23,19 L-22,19 L-22,17 L-21,17 L-21,16 L-20,16 L-20,14 L-19,14 L-19,13 L-18,13 L-18,11 L-17,11 L-17,10 L-16,10 L-16,9 L-15,9 L-15,8 L-13,8 L-13,7 L-12,7 L-12,6 L-11,6 L-11,5 L-10,5 L-10,4 L-8,4 L-8,3 L-6,3 L-6,2 L-4,2 L-4,1 L0,1 Z " fill="#090909" transform="translate(877,727)"/>
<path d="M0,0 L17,0 L17,53 L19,53 L19,51 L20,51 L20,50 L21,50 L21,49 L22,49 L22,48 L23,48 L23,47 L24,47 L24,46 L25,46 L25,45 L26,45 L26,44 L27,44 L27,43 L28,43 L28,41 L29,41 L29,40 L31,40 L31,38 L32,38 L32,37 L33,37 L33,36 L34,36 L34,35 L35,35 L35,34 L36,34 L36,33 L37,33 L37,32 L38,32 L38,31 L39,31 L39,30 L40,30 L40,29 L41,29 L41,28 L42,28 L42,26 L64,26 L64,27 L63,27 L63,28 L62,28 L62,29 L61,29 L61,30 L60,30 L60,31 L59,31 L59,32 L58,32 L58,33 L57,33 L57,34 L56,34 L56,35 L55,35 L55,36 L54,36 L54,37 L53,37 L53,38 L52,38 L52,40 L51,40 L51,41 L50,41 L50,42 L49,42 L49,43 L48,43 L48,44 L47,44 L47,45 L46,45 L46,46 L45,46 L45,47 L44,47 L44,48 L43,48 L43,49 L42,49 L42,50 L41,50 L41,51 L40,51 L40,53 L39,53 L39,54 L38,54 L38,55 L37,55 L37,57 L38,57 L38,58 L39,58 L39,59 L40,59 L40,61 L41,61 L41,62 L42,62 L42,63 L43,63 L43,65 L44,65 L44,66 L45,66 L45,67 L46,67 L46,68 L47,68 L47,69 L48,69 L48,71 L49,71 L49,72 L50,72 L50,73 L51,73 L51,74 L52,74 L52,75 L53,75 L53,77 L54,77 L54,78 L55,78 L55,79 L56,79 L56,80 L57,80 L57,81 L58,81 L58,83 L59,83 L59,84 L60,84 L60,85 L61,85 L61,87 L62,87 L62,88 L63,88 L63,89 L64,89 L64,90 L65,90 L65,92 L66,92 L66,93 L44,93 L44,91 L43,91 L43,90 L42,90 L42,88 L41,88 L41,87 L40,87 L40,86 L39,86 L39,85 L38,85 L38,83 L37,83 L37,82 L36,82 L36,81 L35,81 L35,80 L34,80 L34,78 L33,78 L33,77 L32,77 L32,76 L31,76 L31,75 L30,75 L30,73 L29,73 L29,72 L28,72 L28,71 L27,71 L27,69 L26,69 L26,68 L25,68 L25,67 L24,67 L24,68 L23,68 L23,69 L22,69 L22,70 L21,70 L21,71 L20,71 L20,72 L19,72 L19,73 L18,73 L18,74 L17,74 L17,93 L0,93 Z " fill="#040404" transform="translate(581,702)"/>
<path d="M0,0 L17,0 L17,44 L18,44 L18,46 L19,46 L19,48 L20,48 L20,49 L21,49 L21,51 L22,51 L22,52 L24,52 L24,53 L35,53 L35,52 L37,52 L37,51 L38,51 L38,50 L40,50 L40,49 L41,49 L41,47 L42,47 L42,45 L43,45 L43,43 L44,43 L44,0 L62,0 L62,67 L46,67 L46,60 L44,60 L44,61 L43,61 L43,62 L42,62 L42,63 L41,63 L41,64 L40,64 L40,65 L38,65 L38,66 L36,66 L36,67 L33,67 L33,68 L29,68 L29,69 L20,69 L20,68 L16,68 L16,67 L13,67 L13,66 L12,66 L12,65 L10,65 L10,64 L9,64 L9,63 L8,63 L8,62 L6,62 L6,61 L5,61 L5,59 L4,59 L4,57 L3,57 L3,56 L2,56 L2,53 L1,53 L1,50 L0,50 Z " fill="#050505" transform="translate(387,728)"/>
<path d="M0,0 L12,0 L12,1 L15,1 L15,2 L18,2 L18,3 L20,3 L20,4 L22,4 L22,5 L23,5 L23,6 L24,6 L24,7 L25,7 L25,8 L26,8 L26,9 L27,9 L27,10 L28,10 L28,11 L29,11 L29,12 L30,12 L30,14 L31,14 L31,16 L32,16 L32,18 L33,18 L33,21 L34,21 L34,26 L35,26 L35,38 L34,38 L34,43 L33,43 L33,45 L32,45 L32,48 L31,48 L31,50 L29,50 L29,49 L28,49 L28,48 L27,48 L27,47 L26,47 L26,45 L25,45 L25,44 L24,44 L24,43 L23,43 L23,42 L22,42 L22,41 L2,41 L2,44 L3,44 L3,45 L4,45 L4,46 L5,46 L5,47 L6,47 L6,48 L7,48 L7,49 L8,49 L8,50 L9,50 L9,51 L10,51 L10,52 L11,52 L11,54 L12,54 L12,55 L13,55 L13,56 L14,56 L14,57 L15,57 L15,58 L16,58 L16,59 L17,59 L17,62 L13,62 L13,63 L-1,63 L-1,62 L-5,62 L-5,61 L-7,61 L-7,60 L-9,60 L-9,59 L-10,59 L-10,58 L-11,58 L-11,57 L-13,57 L-13,56 L-14,56 L-14,55 L-15,55 L-15,54 L-16,54 L-16,52 L-17,52 L-17,51 L-18,51 L-18,49 L-19,49 L-19,47 L-20,47 L-20,45 L-21,45 L-21,43 L-22,43 L-22,37 L-23,37 L-23,25 L-22,25 L-22,21 L-21,21 L-21,19 L-20,19 L-20,16 L-19,16 L-19,15 L-18,15 L-18,13 L-17,13 L-17,11 L-16,11 L-16,10 L-15,10 L-15,9 L-14,9 L-14,8 L-13,8 L-13,7 L-12,7 L-12,6 L-11,6 L-11,5 L-10,5 L-10,4 L-8,4 L-8,3 L-6,3 L-6,2 L-4,2 L-4,1 L0,1 Z " fill="#FBFBFB" transform="translate(318,717)"/>
<path d="M0,0 L18,0 L18,1 L21,1 L21,2 L24,2 L24,3 L26,3 L26,4 L28,4 L28,5 L30,5 L30,6 L31,6 L31,7 L32,7 L32,8 L33,8 L33,9 L35,9 L35,10 L36,10 L36,11 L37,11 L37,13 L38,13 L38,14 L39,14 L39,16 L38,16 L38,17 L36,17 L36,18 L34,18 L34,19 L33,19 L33,20 L31,20 L31,21 L30,21 L30,22 L28,22 L28,23 L27,23 L27,24 L26,24 L26,25 L24,25 L24,23 L23,23 L23,21 L22,21 L22,20 L21,20 L21,19 L19,19 L19,18 L18,18 L18,17 L16,17 L16,16 L14,16 L14,15 L6,15 L6,16 L2,16 L2,17 L0,17 L0,18 L-1,18 L-1,19 L-2,19 L-2,20 L-3,20 L-3,21 L-4,21 L-4,22 L-5,22 L-5,24 L-6,24 L-6,25 L-7,25 L-7,29 L-8,29 L-8,41 L-7,41 L-7,44 L-6,44 L-6,46 L-5,46 L-5,47 L-4,47 L-4,48 L-3,48 L-3,49 L-2,49 L-2,50 L-1,50 L-1,51 L0,51 L0,52 L2,52 L2,53 L6,53 L6,54 L14,54 L14,53 L17,53 L17,52 L18,52 L18,51 L20,51 L20,50 L21,50 L21,49 L22,49 L22,48 L23,48 L23,46 L24,46 L24,45 L25,45 L25,44 L27,44 L27,45 L28,45 L28,46 L29,46 L29,47 L31,47 L31,48 L33,48 L33,49 L35,49 L35,50 L36,50 L36,51 L38,51 L38,52 L40,52 L40,54 L39,54 L39,55 L38,55 L38,56 L37,56 L37,57 L36,57 L36,59 L35,59 L35,60 L34,60 L34,61 L33,61 L33,62 L32,62 L32,63 L30,63 L30,64 L29,64 L29,65 L27,65 L27,66 L25,66 L25,67 L22,67 L22,68 L19,68 L19,69 L16,69 L16,70 L2,70 L2,69 L0,69 L0,68 L-3,68 L-3,67 L-7,67 L-7,66 L-9,66 L-9,65 L-11,65 L-11,64 L-12,64 L-12,63 L-13,63 L-13,62 L-15,62 L-15,61 L-16,61 L-16,60 L-17,60 L-17,59 L-18,59 L-18,57 L-19,57 L-19,56 L-20,56 L-20,55 L-21,55 L-21,53 L-22,53 L-22,51 L-23,51 L-23,49 L-24,49 L-24,45 L-25,45 L-25,43 L-26,43 L-26,27 L-25,27 L-25,23 L-24,23 L-24,21 L-23,21 L-23,18 L-22,18 L-22,17 L-21,17 L-21,15 L-20,15 L-20,14 L-19,14 L-19,12 L-18,12 L-18,11 L-17,11 L-17,10 L-16,10 L-16,9 L-15,9 L-15,8 L-14,8 L-14,7 L-12,7 L-12,6 L-11,6 L-11,5 L-9,5 L-9,4 L-8,4 L-8,3 L-6,3 L-6,2 L-3,2 L-3,1 L0,1 Z " fill="#070707" transform="translate(528,727)"/>
<path d="M0,0 L5,0 L5,1 L7,1 L7,2 L11,2 L11,6 L12,6 L12,12 L13,12 L13,20 L14,20 L14,28 L15,28 L15,32 L13,32 L13,35 L12,35 L12,21 L11,21 L11,20 L10,20 L10,7 L8,7 L8,4 L7,4 L7,69 L6,69 L6,71 L5,71 L5,72 L3,72 L3,73 L1,73 L1,74 L0,74 L0,76 L-2,76 L-2,75 L-3,75 L-3,76 L-6,76 L-6,73 L-5,73 L-5,70 L-6,70 L-6,71 L-7,71 L-7,72 L-8,72 L-8,73 L-9,73 L-9,72 L-10,72 L-10,73 L-11,73 L-11,74 L-12,74 L-12,73 L-13,73 L-13,72 L-14,72 L-14,68 L-17,68 L-17,69 L-18,69 L-18,70 L-19,70 L-19,71 L-20,71 L-20,72 L-22,72 L-22,73 L-25,73 L-25,72 L-27,72 L-27,71 L-26,71 L-26,69 L-27,69 L-27,10 L-23,10 L-23,9 L-22,9 L-22,8 L-20,8 L-20,9 L-18,9 L-18,63 L-17,63 L-17,64 L-16,64 L-16,52 L-15,52 L-15,6 L-16,6 L-16,8 L-17,8 L-17,4 L-14,4 L-14,3 L-12,3 L-12,2 L-5,2 L-5,5 L-4,5 L-4,6 L-3,6 L-3,4 L-2,4 L-2,3 L0,3 Z M-5,6 L-5,7 L-4,7 L-4,6 Z " fill="#FDF8E3" transform="translate(579,388)"/>
<path d="M0,0 L18,0 L18,17 L36,17 L36,32 L18,32 L18,66 L19,66 L19,68 L20,68 L20,69 L22,69 L22,70 L30,70 L30,69 L33,69 L33,68 L36,68 L36,77 L37,77 L37,83 L34,83 L34,84 L30,84 L30,85 L15,85 L15,84 L12,84 L12,83 L10,83 L10,82 L8,82 L8,81 L7,81 L7,80 L6,80 L6,79 L5,79 L5,78 L4,78 L4,76 L3,76 L3,75 L2,75 L2,73 L1,73 L1,68 L0,68 L0,32 L-11,32 L-11,17 L0,17 Z " fill="#080808" transform="translate(806,711)"/>
<path d="M0,0 L18,0 L18,67 L0,67 Z " fill="#080808" transform="translate(763,728)"/>
<path d="M0,0 L17,0 L17,67 L0,67 Z " fill="#030303" transform="translate(469,728)"/>
<path d="M0,0 L24,0 L24,1 L28,1 L28,2 L30,2 L30,3 L32,3 L32,4 L33,4 L33,5 L34,5 L34,6 L35,6 L35,8 L36,8 L36,16 L35,16 L35,18 L34,18 L34,20 L33,20 L33,21 L32,21 L32,22 L30,22 L30,23 L28,23 L28,24 L26,24 L26,25 L0,25 Z " fill="#F6F6F6" transform="translate(693,755)"/>
<path d="M0,0 L22,0 L22,1 L25,1 L25,2 L27,2 L27,3 L28,3 L28,4 L30,4 L30,6 L31,6 L31,8 L32,8 L32,17 L31,17 L31,19 L30,19 L30,20 L29,20 L29,22 L27,22 L27,23 L25,23 L25,24 L23,24 L23,25 L0,25 Z " fill="#F9F9F9" transform="translate(693,717)"/>
<path d="M0,0 L3,0 L3,2 L4,2 L4,4 L6,4 L6,6 L7,6 L7,9 L8,9 L8,11 L9,11 L9,14 L10,14 L10,28 L9,28 L9,30 L8,30 L8,32 L7,32 L7,34 L6,34 L6,37 L3,37 L3,35 L2,35 L2,36 L-7,36 L-7,35 L-11,35 L-11,34 L-14,34 L-14,33 L-15,33 L-15,32 L-17,32 L-17,31 L-18,31 L-18,30 L-19,30 L-19,29 L-20,29 L-20,28 L-21,28 L-21,27 L-22,27 L-22,26 L-23,26 L-23,25 L-24,25 L-24,24 L-25,24 L-25,22 L-26,22 L-26,20 L-27,20 L-27,18 L-28,18 L-28,15 L-29,15 L-29,13 L-25,13 L-25,14 L-22,14 L-22,15 L-19,15 L-19,16 L-17,16 L-17,17 L-15,17 L-15,18 L-13,18 L-13,19 L-11,19 L-11,20 L-9,20 L-9,21 L-8,21 L-8,22 L-7,22 L-7,23 L-6,23 L-6,24 L-5,24 L-5,25 L-4,25 L-4,26 L-3,26 L-3,28 L-2,28 L-2,29 L-1,29 L-1,31 L0,31 L0,33 L1,33 L1,34 L2,34 L2,29 L1,29 L1,28 L0,28 L0,24 L-1,24 L-1,21 L-2,21 L-2,6 L-1,6 L-1,2 L0,2 Z " fill="#FBF5DC" transform="translate(533,500)"/>
<path d="M0,0 L11,0 L11,1 L14,1 L14,2 L15,2 L15,3 L7,3 L7,2 L1,2 L1,4 L-1,4 L-1,5 L-2,5 L-2,29 L-1,29 L-1,69 L0,69 L0,107 L2,107 L2,108 L35,108 L35,107 L43,107 L43,106 L47,106 L47,105 L53,105 L53,104 L54,104 L54,85 L55,85 L55,69 L54,69 L54,66 L45,66 L45,64 L43,64 L43,63 L33,63 L33,62 L27,62 L27,61 L26,61 L26,60 L22,60 L22,59 L21,59 L21,58 L19,58 L19,56 L16,56 L16,53 L14,53 L14,51 L13,51 L13,48 L17,48 L17,52 L18,52 L18,53 L19,53 L19,54 L20,54 L20,55 L22,55 L22,56 L23,56 L23,57 L25,57 L25,58 L27,58 L27,59 L31,59 L31,60 L35,60 L35,61 L39,61 L39,62 L45,62 L45,63 L51,63 L51,64 L56,64 L56,101 L55,101 L55,106 L49,106 L49,107 L45,107 L45,108 L39,108 L39,109 L32,109 L32,110 L8,110 L8,109 L-1,109 L-1,85 L-2,85 L-2,53 L-3,53 L-3,29 L-4,29 L-4,1 L0,1 Z " fill="#D29348" transform="translate(581,539)"/>
<path d="M0,0 L4,0 L4,63 L3,63 L3,64 L2,64 L2,65 L-1,65 L-1,64 L-2,64 L-2,63 L-3,63 L-3,1 L0,1 Z " fill="#E1943E" transform="translate(568,393)"/>
<path d="M0,0 L2,0 L2,2 L1,2 L1,4 L-1,4 L-1,5 L-3,5 L-3,6 L-7,6 L-7,8 L-8,8 L-8,9 L-9,9 L-9,10 L-10,10 L-10,11 L-11,11 L-11,12 L-12,12 L-12,13 L-13,13 L-13,15 L-15,15 L-15,16 L-17,16 L-17,15 L-18,15 L-18,16 L-19,16 L-19,17 L-20,17 L-20,18 L-21,18 L-21,19 L-20,19 L-20,21 L-22,21 L-22,22 L-20,22 L-20,23 L-19,23 L-19,24 L-20,24 L-20,27 L-18,27 L-18,26 L-15,26 L-15,24 L-14,24 L-14,23 L-10,23 L-10,24 L-11,24 L-11,25 L-13,25 L-13,26 L-14,26 L-14,27 L-15,27 L-15,28 L-17,28 L-17,29 L-18,29 L-18,30 L-19,30 L-19,31 L-20,31 L-20,32 L-21,32 L-21,33 L-23,33 L-23,34 L-24,34 L-24,35 L-25,35 L-25,36 L-26,36 L-26,37 L-28,37 L-28,39 L-29,39 L-29,40 L-31,40 L-31,41 L-33,41 L-33,42 L-34,42 L-34,43 L-35,43 L-35,44 L-36,44 L-36,41 L-35,41 L-35,40 L-33,40 L-33,39 L-34,39 L-34,38 L-36,38 L-36,37 L-35,37 L-35,36 L-33,36 L-33,32 L-35,32 L-35,31 L-36,31 L-36,30 L-35,30 L-35,29 L-38,29 L-38,30 L-39,30 L-39,32 L-41,32 L-41,33 L-42,33 L-42,34 L-45,34 L-45,35 L-47,35 L-47,34 L-46,34 L-46,33 L-45,33 L-45,32 L-44,32 L-44,31 L-43,31 L-43,30 L-41,30 L-41,28 L-39,28 L-39,27 L-38,27 L-38,26 L-37,26 L-37,25 L-36,25 L-36,24 L-34,24 L-34,23 L-33,23 L-33,22 L-32,22 L-32,21 L-31,21 L-31,20 L-29,20 L-29,19 L-28,19 L-28,18 L-27,18 L-27,17 L-25,17 L-25,16 L-24,16 L-24,15 L-22,15 L-22,14 L-21,14 L-21,13 L-20,13 L-20,12 L-18,12 L-18,11 L-17,11 L-17,10 L-15,10 L-15,9 L-13,9 L-13,8 L-12,8 L-12,7 L-11,7 L-11,6 L-9,6 L-9,5 L-7,5 L-7,4 L-5,4 L-5,3 L-4,3 L-4,2 L-2,2 L-2,1 L0,1 Z M-23,22 L-23,23 L-22,23 L-22,22 Z " fill="#FBFBF1" transform="translate(548,536)"/>
<path d="M0,0 L2,0 L2,61 L0,61 L0,62 L-3,62 L-3,61 L-5,61 L-5,2 L-1,2 L-1,1 L0,1 Z " fill="#E2A258" transform="translate(557,396)"/>
<path d="M0,0 L3,0 L3,28 L2,28 L2,52 L1,52 L1,76 L0,76 L0,24 L-1,24 L-1,14 L-2,14 L-2,13 L-1,13 L-1,12 L-7,12 L-7,11 L-9,11 L-9,10 L-13,10 L-13,13 L-16,13 L-16,15 L-18,15 L-18,16 L-19,16 L-19,17 L-20,17 L-20,19 L-23,19 L-23,20 L-26,20 L-26,21 L-27,21 L-27,22 L-28,22 L-28,23 L-30,23 L-30,24 L-31,24 L-31,25 L-32,25 L-32,26 L-33,26 L-33,27 L-34,27 L-34,28 L-35,28 L-35,29 L-36,29 L-36,30 L-38,30 L-38,32 L-40,32 L-40,33 L-44,33 L-44,36 L-45,36 L-45,37 L-46,37 L-46,38 L-48,38 L-48,39 L-51,39 L-51,38 L-50,38 L-50,37 L-49,37 L-49,36 L-48,36 L-48,35 L-47,35 L-47,34 L-46,34 L-46,33 L-45,33 L-45,32 L-44,32 L-44,31 L-43,31 L-43,30 L-42,30 L-42,29 L-40,29 L-40,28 L-38,28 L-38,27 L-37,27 L-37,25 L-35,25 L-35,24 L-34,24 L-34,23 L-33,23 L-33,22 L-32,22 L-32,21 L-30,21 L-30,20 L-29,20 L-29,19 L-28,19 L-28,18 L-27,18 L-27,17 L-26,17 L-26,16 L-24,16 L-24,15 L-23,15 L-23,14 L-22,14 L-22,13 L-20,13 L-20,12 L-19,12 L-19,11 L-17,11 L-17,10 L-16,10 L-16,9 L-14,9 L-14,8 L-13,8 L-13,7 L-11,7 L-11,6 L-9,6 L-9,5 L-7,5 L-7,4 L-5,4 L-5,3 L-4,3 L-4,2 L-2,2 L-2,1 L0,1 Z " fill="#DD892F" transform="translate(557,548)"/>
<path d="M0,0 L1,0 L1,8 L2,8 L2,9 L3,9 L3,13 L-1,13 L-1,11 L-4,11 L-4,13 L-5,13 L-5,20 L-6,20 L-6,21 L-8,21 L-8,23 L-9,23 L-9,25 L-10,25 L-10,29 L-11,29 L-11,36 L-12,36 L-12,44 L-13,44 L-13,45 L-14,45 L-14,54 L-15,54 L-15,61 L-12,61 L-12,60 L-11,60 L-11,77 L-15,77 L-15,83 L-14,83 L-14,93 L-13,93 L-13,98 L-12,98 L-12,101 L-11,101 L-11,107 L-10,107 L-10,110 L-9,110 L-9,111 L-8,111 L-8,117 L-9,117 L-9,115 L-10,115 L-10,113 L-11,113 L-11,109 L-12,109 L-12,106 L-13,106 L-13,103 L-14,103 L-14,99 L-15,99 L-15,94 L-16,94 L-16,90 L-17,90 L-17,85 L-18,85 L-18,51 L-17,51 L-17,45 L-16,45 L-16,39 L-15,39 L-15,37 L-14,37 L-14,32 L-13,32 L-13,29 L-12,29 L-12,26 L-11,26 L-11,23 L-10,23 L-10,21 L-9,21 L-9,17 L-8,17 L-8,15 L-7,15 L-7,13 L-6,13 L-6,11 L-5,11 L-5,9 L-4,9 L-4,7 L-3,7 L-3,5 L-2,5 L-2,4 L-1,4 L-1,1 L0,1 Z " fill="#E6831A" transform="translate(489,451)"/>
<path d="M0,0 L37,0 L37,2 L39,2 L39,3 L38,3 L38,6 L39,6 L39,8 L38,8 L38,7 L36,7 L36,6 L33,6 L33,7 L32,7 L32,8 L31,8 L31,9 L30,9 L30,10 L29,10 L29,11 L28,11 L28,12 L26,12 L26,13 L24,13 L24,14 L13,14 L13,13 L9,13 L9,12 L8,12 L8,11 L6,11 L6,10 L5,10 L5,9 L4,9 L4,8 L3,8 L3,6 L2,6 L2,4 L1,4 L1,1 L0,1 Z " fill="#F8F8F8" transform="translate(869,768)"/>
<path d="M0,0 L6,0 L6,65 L5,65 L5,66 L4,66 L4,67 L1,67 L1,66 L0,66 Z " fill="#E28420" transform="translate(579,391)"/>
<path d="M0,0 L9,0 L9,1 L11,1 L11,2 L14,2 L14,3 L15,3 L15,4 L16,4 L16,5 L17,5 L17,6 L18,6 L18,7 L19,7 L19,9 L20,9 L20,11 L21,11 L21,15 L-12,15 L-12,12 L-11,12 L-11,10 L-10,10 L-10,8 L-9,8 L-9,6 L-8,6 L-8,5 L-7,5 L-7,4 L-6,4 L-6,3 L-4,3 L-4,2 L-2,2 L-2,1 L0,1 Z " fill="#F4F4F4" transform="translate(881,740)"/>
<path d="M0,0 L9,0 L9,1 L11,1 L11,2 L12,2 L12,3 L13,3 L13,4 L14,4 L14,6 L15,6 L15,12 L14,12 L14,14 L13,14 L13,16 L12,16 L12,17 L11,17 L11,18 L9,18 L9,19 L7,19 L7,20 L2,20 L2,19 L-1,19 L-1,18 L-2,18 L-2,17 L-3,17 L-3,16 L-4,16 L-4,14 L-5,14 L-5,5 L-4,5 L-4,4 L-3,4 L-3,2 L-1,2 L-1,1 L0,1 Z " fill="#0C0C0C" transform="translate(473,699)"/>
<path d="M0,0 L1,0 L1,4 L0,4 L0,5 L-1,5 L-1,6 L-2,6 L-2,8 L-3,8 L-3,9 L-8,9 L-8,10 L-9,10 L-9,12 L-11,12 L-11,13 L-14,13 L-14,63 L-13,63 L-13,65 L-12,65 L-12,106 L-11,106 L-11,109 L-10,109 L-10,110 L-9,110 L-9,112 L-8,112 L-8,113 L-7,113 L-7,114 L-5,114 L-5,116 L-4,116 L-4,119 L-3,119 L-3,121 L-2,121 L-2,123 L-1,123 L-1,125 L0,125 L0,126 L1,126 L1,127 L2,127 L2,130 L5,130 L5,138 L4,138 L4,136 L3,136 L3,133 L2,133 L2,132 L1,132 L1,129 L0,129 L0,127 L-1,127 L-1,126 L-2,126 L-2,125 L-3,125 L-3,123 L-4,123 L-4,121 L-5,121 L-5,120 L-6,120 L-6,118 L-7,118 L-7,116 L-8,116 L-8,115 L-9,115 L-9,113 L-10,113 L-10,111 L-11,111 L-11,110 L-12,110 L-12,108 L-13,108 L-13,107 L-14,107 L-14,105 L-15,105 L-15,39 L-16,39 L-16,12 L-14,12 L-14,11 L-13,11 L-13,10 L-11,10 L-11,9 L-9,9 L-9,8 L-8,8 L-8,7 L-6,7 L-6,6 L-5,6 L-5,5 L-4,5 L-4,4 L-3,4 L-3,3 L-2,3 L-2,2 L-1,2 L-1,1 L0,1 Z " fill="#DD8528" transform="translate(671,481)"/>
<path d="M0,0 L9,0 L9,1 L11,1 L11,2 L12,2 L12,3 L13,3 L13,4 L14,4 L14,7 L15,7 L15,13 L14,13 L14,15 L13,15 L13,16 L12,16 L12,17 L11,17 L11,18 L10,18 L10,19 L8,19 L8,20 L2,20 L2,19 L0,19 L0,18 L-1,18 L-1,17 L-2,17 L-2,16 L-3,16 L-3,15 L-4,15 L-4,13 L-5,13 L-5,6 L-4,6 L-4,4 L-3,4 L-3,3 L-2,3 L-2,2 L-1,2 L-1,1 L0,1 Z " fill="#080808" transform="translate(767,699)"/>
<path d="M0,0 L4,0 L4,1 L7,1 L7,2 L10,2 L10,3 L12,3 L12,4 L14,4 L14,5 L16,5 L16,6 L18,6 L18,7 L20,7 L20,8 L21,8 L21,9 L22,9 L22,10 L23,10 L23,13 L24,13 L24,16 L26,16 L26,17 L27,17 L27,20 L26,20 L26,21 L19,21 L19,20 L18,20 L18,19 L17,19 L17,18 L13,18 L13,17 L10,17 L10,16 L9,16 L9,15 L8,15 L8,14 L7,14 L7,13 L6,13 L6,12 L5,12 L5,11 L4,11 L4,9 L3,9 L3,7 L2,7 L2,5 L1,5 L1,2 L0,2 Z " fill="#FAFDFC" transform="translate(504,513)"/>
<path d="M0,0 L2,0 L2,1 L3,1 L3,2 L5,2 L5,3 L6,3 L6,4 L8,4 L8,5 L9,5 L9,6 L10,6 L10,7 L11,7 L11,8 L13,8 L13,9 L14,9 L14,10 L15,10 L15,11 L16,11 L16,12 L17,12 L17,13 L18,13 L18,14 L19,14 L19,15 L20,15 L20,16 L21,16 L21,17 L22,17 L22,18 L23,18 L23,19 L24,19 L24,20 L25,20 L25,21 L26,21 L26,22 L27,22 L27,23 L28,23 L28,25 L29,25 L29,26 L30,26 L30,27 L31,27 L31,28 L32,28 L32,30 L31,30 L31,29 L30,29 L30,28 L27,28 L27,27 L25,27 L25,25 L24,25 L24,22 L22,22 L22,21 L21,21 L21,20 L19,20 L19,19 L17,19 L17,17 L14,17 L14,20 L10,20 L10,16 L11,16 L11,15 L12,15 L12,12 L11,12 L11,11 L10,11 L10,9 L6,9 L6,11 L7,11 L7,13 L8,13 L8,24 L9,24 L9,52 L8,52 L8,58 L9,58 L9,60 L8,60 L8,62 L6,62 L6,63 L5,63 L5,64 L4,64 L4,65 L2,65 L2,63 L3,63 L3,61 L4,61 L4,60 L5,60 L5,56 L6,56 L6,54 L7,54 L7,49 L8,49 L8,26 L7,26 L7,21 L6,21 L6,18 L5,18 L5,13 L4,13 L4,10 L3,10 L3,8 L2,8 L2,5 L1,5 L1,2 L0,2 Z " fill="#E38521" transform="translate(672,412)"/>
<path d="M0,0 L2,0 L2,3 L3,3 L3,5 L4,5 L4,7 L5,7 L5,9 L6,9 L6,10 L7,10 L7,11 L8,11 L8,12 L9,12 L9,13 L10,13 L10,14 L11,14 L11,15 L12,15 L12,16 L13,16 L13,17 L15,17 L15,18 L16,18 L16,19 L19,19 L19,20 L23,20 L23,21 L32,21 L32,20 L33,20 L33,22 L36,22 L36,19 L37,19 L37,17 L38,17 L38,15 L39,15 L39,13 L40,13 L40,3 L41,3 L41,14 L40,14 L40,19 L39,19 L39,21 L38,21 L38,23 L36,23 L36,24 L40,24 L40,25 L38,25 L38,26 L36,26 L36,27 L34,27 L34,28 L33,28 L33,29 L32,29 L32,30 L30,30 L30,31 L28,31 L28,32 L27,32 L27,33 L25,33 L25,34 L24,34 L24,35 L23,35 L23,36 L21,36 L21,37 L20,37 L20,38 L18,38 L18,39 L17,39 L17,40 L16,40 L16,41 L14,41 L14,42 L13,42 L13,43 L12,43 L12,44 L11,44 L11,45 L9,45 L9,46 L8,46 L8,47 L7,47 L7,48 L6,48 L6,49 L4,49 L4,51 L2,51 L2,52 L1,52 L1,53 L0,53 L0,54 L-1,54 L-1,55 L-2,55 L-2,56 L-3,56 L-3,57 L-4,57 L-4,58 L-5,58 L-5,59 L-6,59 L-6,60 L-7,60 L-7,57 L-5,57 L-5,54 L-4,54 L-4,52 L-3,52 L-3,51 L1,51 L1,49 L3,49 L3,48 L4,48 L4,46 L6,46 L6,45 L7,45 L7,44 L8,44 L8,43 L9,43 L9,42 L10,42 L10,41 L12,41 L12,40 L14,40 L14,38 L16,38 L16,37 L17,37 L17,36 L18,36 L18,35 L21,35 L21,34 L22,34 L22,33 L23,33 L23,32 L26,32 L26,30 L28,30 L28,28 L27,28 L27,27 L32,27 L32,24 L31,24 L31,23 L21,23 L21,22 L17,22 L17,21 L16,21 L16,20 L14,20 L14,18 L12,18 L12,17 L9,17 L9,14 L8,14 L8,13 L5,13 L5,11 L4,11 L4,9 L3,9 L3,8 L2,8 L2,5 L1,5 L1,2 L0,2 Z " fill="#D68C35" transform="translate(503,515)"/>
<path d="M0,0 L1,0 L1,2 L2,2 L2,6 L3,6 L3,9 L4,9 L4,12 L5,12 L5,18 L6,18 L6,25 L7,25 L7,31 L8,31 L8,55 L7,55 L7,62 L6,62 L6,68 L5,68 L5,73 L4,73 L4,76 L3,76 L3,80 L2,80 L2,84 L1,84 L1,86 L0,86 L0,89 L-1,89 L-1,92 L-2,92 L-2,94 L-3,94 L-3,96 L-4,96 L-4,99 L-5,99 L-5,101 L-6,101 L-6,103 L-7,103 L-7,105 L-8,105 L-8,107 L-9,107 L-9,108 L-10,108 L-10,103 L-9,103 L-9,102 L-8,102 L-8,98 L-7,98 L-7,95 L-6,95 L-6,92 L-5,92 L-5,91 L-4,91 L-4,89 L-3,89 L-3,87 L-2,87 L-2,84 L-1,84 L-1,83 L0,83 L0,79 L1,79 L1,74 L2,74 L2,70 L3,70 L3,68 L4,68 L4,56 L5,56 L5,52 L6,52 L6,36 L5,36 L5,22 L4,22 L4,18 L3,18 L3,16 L2,16 L2,7 L1,7 L1,4 L0,4 Z " fill="#D88C34" transform="translate(722,476)"/>
<path d="M0,0 L5,0 L5,1 L7,1 L7,2 L11,2 L11,6 L12,6 L12,12 L13,12 L13,20 L14,20 L14,28 L15,28 L15,32 L13,32 L13,35 L12,35 L12,21 L11,21 L11,20 L10,20 L10,7 L8,7 L8,4 L7,4 L7,69 L6,69 L6,71 L5,71 L5,72 L4,72 L4,71 L1,71 L1,72 L0,72 L0,71 L-1,71 L-1,3 L0,3 Z M0,3 L0,69 L1,69 L1,70 L4,70 L4,69 L5,69 L5,68 L6,68 L6,3 Z " fill="#FBDDAD" transform="translate(579,388)"/>
<path d="M0,0 L1,0 L1,1 L2,1 L2,2 L3,2 L3,3 L4,3 L4,4 L5,4 L5,5 L6,5 L6,6 L7,6 L7,8 L8,8 L8,9 L9,9 L9,10 L10,10 L10,11 L11,11 L11,12 L12,12 L12,14 L13,14 L13,15 L14,15 L14,16 L15,16 L15,17 L16,17 L16,18 L17,18 L17,20 L18,20 L18,32 L16,32 L16,31 L15,31 L15,30 L13,30 L13,29 L12,29 L12,28 L10,28 L10,27 L8,27 L8,26 L6,26 L6,25 L4,25 L4,24 L-3,24 L-3,23 L-10,23 L-10,24 L-16,24 L-16,25 L-20,25 L-20,26 L-22,26 L-22,25 L-21,25 L-21,23 L-12,23 L-12,21 L5,21 L5,22 L6,22 L6,23 L10,23 L10,12 L9,12 L9,11 L6,11 L6,10 L5,10 L5,6 L1,6 L1,4 L0,4 Z " fill="#E4821C" transform="translate(620,561)"/>
<path d="M0,0 L4,0 L4,1 L5,1 L5,2 L3,2 L3,4 L6,4 L6,6 L5,6 L5,7 L7,7 L7,8 L8,8 L8,9 L13,9 L13,10 L14,10 L14,11 L19,11 L19,12 L20,12 L20,13 L24,13 L24,14 L28,14 L28,15 L36,15 L36,16 L38,16 L38,15 L40,15 L40,22 L39,22 L39,54 L40,54 L40,56 L38,56 L38,59 L36,59 L36,54 L37,54 L37,17 L32,17 L32,16 L26,16 L26,15 L20,15 L20,14 L16,14 L16,13 L12,13 L12,12 L8,12 L8,11 L6,11 L6,10 L4,10 L4,9 L3,9 L3,8 L1,8 L1,7 L0,7 L0,6 L-1,6 L-1,5 L-2,5 L-2,1 L0,1 Z " fill="#FCEDCD" transform="translate(600,586)"/>
<path d="M0,0 L1,0 L1,6 L0,6 L0,8 L-1,8 L-1,10 L-2,10 L-2,12 L-3,12 L-3,14 L-4,14 L-4,21 L-5,21 L-5,22 L-7,22 L-7,23 L-8,23 L-8,24 L-9,24 L-9,26 L-10,26 L-10,28 L-9,28 L-9,30 L-10,30 L-10,31 L-12,31 L-12,32 L-13,32 L-13,34 L-14,34 L-14,37 L-15,37 L-15,38 L-17,38 L-17,39 L-18,39 L-18,40 L-19,40 L-19,42 L-20,42 L-20,43 L-21,43 L-21,45 L-23,45 L-23,46 L-25,46 L-25,49 L-26,49 L-26,50 L-29,50 L-29,53 L-30,53 L-30,55 L-32,55 L-32,56 L-33,56 L-33,57 L-34,57 L-34,58 L-35,58 L-35,59 L-36,59 L-36,60 L-38,60 L-38,62 L-42,62 L-42,64 L-47,64 L-47,63 L-48,63 L-48,59 L-47,59 L-47,61 L-46,61 L-46,63 L-44,63 L-44,62 L-43,62 L-43,61 L-42,61 L-42,60 L-40,60 L-40,59 L-39,59 L-39,58 L-38,58 L-38,57 L-37,57 L-37,56 L-36,56 L-36,55 L-35,55 L-35,54 L-34,54 L-34,53 L-33,53 L-33,52 L-32,52 L-32,51 L-31,51 L-31,50 L-30,50 L-30,49 L-29,49 L-29,48 L-28,48 L-28,47 L-27,47 L-27,46 L-26,46 L-26,45 L-25,45 L-25,44 L-24,44 L-24,43 L-23,43 L-23,41 L-22,41 L-22,40 L-21,40 L-21,39 L-20,39 L-20,38 L-19,38 L-19,36 L-18,36 L-18,34 L-17,34 L-17,33 L-16,33 L-16,32 L-15,32 L-15,30 L-14,30 L-14,29 L-13,29 L-13,28 L-12,28 L-12,26 L-11,26 L-11,24 L-10,24 L-10,23 L-9,23 L-9,21 L-8,21 L-8,19 L-7,19 L-7,17 L-6,17 L-6,15 L-5,15 L-5,12 L-4,12 L-4,10 L-3,10 L-3,8 L-2,8 L-2,5 L-1,5 L-1,2 L0,2 Z " fill="#FAEDCE" transform="translate(723,560)"/>
<path d="M0,0 L26,0 L26,1 L31,1 L31,2 L3,2 L3,15 L4,15 L4,16 L5,16 L5,18 L6,18 L6,20 L7,20 L7,24 L6,24 L6,36 L7,36 L7,42 L8,42 L8,50 L9,50 L9,52 L10,52 L10,58 L9,58 L9,74 L7,74 L7,70 L8,70 L8,54 L7,54 L7,47 L6,47 L6,38 L5,38 L5,31 L4,31 L4,26 L3,26 L3,18 L2,18 L2,10 L1,10 L1,4 L0,4 Z " fill="#D78A36" transform="translate(590,390)"/>
<path d="M0,0 L1,0 L1,2 L0,2 L0,6 L-1,6 L-1,7 L-4,7 L-4,9 L-5,9 L-5,10 L-7,10 L-7,11 L-8,11 L-8,34 L-9,34 L-9,35 L-10,35 L-10,37 L-7,37 L-7,38 L1,38 L1,39 L4,39 L4,40 L-9,40 L-9,41 L-12,41 L-12,9 L-11,9 L-11,8 L-9,8 L-9,7 L-7,7 L-7,6 L-5,6 L-5,5 L-4,5 L-4,4 L-3,4 L-3,3 L-2,3 L-2,2 L-1,2 L-1,1 L0,1 Z " fill="#DF882E" transform="translate(588,484)"/>
<path d="M0,0 L5,0 L5,1 L6,1 L6,8 L7,8 L7,10 L6,10 L6,30 L5,30 L5,38 L4,38 L4,57 L3,57 L3,92 L4,92 L4,96 L1,96 L1,98 L0,98 L0,97 L-1,97 L-1,96 L-2,96 L-2,95 L1,95 L1,78 L2,78 L2,54 L3,54 L3,30 L4,30 L4,2 L1,2 L1,3 L-1,3 L-1,4 L-2,4 L-2,1 L0,1 Z " fill="#FCE6BE" transform="translate(556,546)"/>
<path d="M0,0 L4,0 L4,1 L3,1 L3,2 L2,2 L2,3 L1,3 L1,4 L-1,4 L-1,5 L-3,5 L-3,6 L-5,6 L-5,7 L-6,7 L-6,39 L-3,39 L-3,38 L11,38 L11,39 L16,39 L16,40 L18,40 L18,41 L20,41 L20,42 L22,42 L22,43 L24,43 L24,45 L26,45 L26,46 L28,46 L28,47 L29,47 L29,48 L27,48 L27,47 L24,47 L24,46 L21,46 L21,45 L20,45 L20,43 L18,43 L18,42 L16,42 L16,41 L15,41 L15,40 L0,40 L0,41 L-1,41 L-1,42 L-2,42 L-2,41 L-6,41 L-6,42 L-7,42 L-7,39 L-8,39 L-8,7 L-7,7 L-7,4 L-4,4 L-4,3 L-3,3 L-3,2 L-2,2 L-2,1 L0,1 Z " fill="#FEF3D6" transform="translate(582,486)"/>
<path d="M0,0 L11,0 L11,1 L14,1 L14,2 L15,2 L15,3 L7,3 L7,2 L1,2 L1,4 L-1,4 L-1,5 L-2,5 L-2,29 L-1,29 L-1,77 L-2,77 L-2,53 L-3,53 L-3,29 L-4,29 L-4,1 L0,1 Z " fill="#D8852D" transform="translate(581,539)"/>
<path d="M0,0 L1,0 L1,2 L2,2 L2,5 L4,5 L4,10 L5,10 L5,18 L6,18 L6,21 L5,21 L5,22 L6,22 L6,29 L5,29 L5,40 L4,40 L4,45 L3,45 L3,53 L2,53 L2,61 L1,61 L1,68 L0,68 L0,69 L-1,69 L-1,72 L-2,72 L-2,69 L-3,69 L-3,65 L-2,65 L-2,61 L-1,61 L-1,58 L0,58 L0,53 L1,53 L1,47 L2,47 L2,40 L3,40 L3,16 L2,16 L2,10 L1,10 L1,3 L0,3 Z " fill="#FDEFD2" transform="translate(727,491)"/>
<path d="M0,0 L3,0 L3,1 L2,1 L2,3 L1,3 L1,4 L0,4 L0,5 L-1,5 L-1,6 L-2,6 L-2,8 L-3,8 L-3,10 L-4,10 L-4,12 L-5,12 L-5,14 L-6,14 L-6,16 L-7,16 L-7,18 L-8,18 L-8,20 L-9,20 L-9,23 L-10,23 L-10,28 L-11,28 L-11,30 L-12,30 L-12,34 L-13,34 L-13,39 L-14,39 L-14,63 L-13,63 L-13,66 L-12,66 L-12,70 L-11,70 L-11,72 L-10,72 L-10,74 L-12,74 L-12,73 L-13,73 L-13,70 L-14,70 L-14,66 L-15,66 L-15,34 L-14,34 L-14,23 L-15,23 L-15,22 L-16,22 L-16,18 L-13,18 L-13,20 L-12,20 L-12,21 L-11,21 L-11,20 L-10,20 L-10,15 L-7,15 L-7,10 L-5,10 L-5,8 L-4,8 L-4,6 L-3,6 L-3,3 L-1,3 L-1,1 L0,1 Z M-14,22 L-14,23 L-13,23 L-13,22 Z " fill="#E0872A" transform="translate(630,398)"/>
<path d="M0,0 L3,0 L3,54 L0,54 Z " fill="#F08516" transform="translate(554,400)"/>
<path d="M0,0 L1,0 L1,68 L2,68 L2,69 L3,69 L3,68 L6,68 L6,69 L5,69 L5,70 L3,70 L3,71 L2,71 L2,73 L0,73 L0,72 L-1,72 L-1,73 L-4,73 L-4,70 L-3,70 L-3,67 L-4,67 L-4,68 L-5,68 L-5,69 L-6,69 L-6,70 L-7,70 L-7,69 L-8,69 L-8,70 L-9,70 L-9,71 L-10,71 L-10,70 L-11,70 L-11,69 L-12,69 L-12,65 L-11,65 L-11,66 L-10,66 L-10,67 L-5,67 L-5,66 L-4,66 L-4,65 L-3,65 L-3,57 L0,57 Z " fill="#FCFAE8" transform="translate(577,391)"/>
<path d="M0,0 L1,0 L1,8 L2,8 L2,9 L3,9 L3,13 L-1,13 L-1,11 L-4,11 L-4,13 L-5,13 L-5,20 L-6,20 L-6,21 L-8,21 L-8,23 L-9,23 L-9,25 L-10,25 L-10,29 L-11,29 L-11,32 L-12,32 L-12,35 L-13,35 L-13,39 L-14,39 L-14,43 L-15,43 L-15,52 L-16,52 L-16,57 L-17,57 L-17,59 L-18,59 L-18,51 L-17,51 L-17,45 L-16,45 L-16,39 L-15,39 L-15,37 L-14,37 L-14,32 L-13,32 L-13,29 L-12,29 L-12,26 L-11,26 L-11,23 L-10,23 L-10,21 L-9,21 L-9,17 L-8,17 L-8,15 L-7,15 L-7,13 L-6,13 L-6,11 L-5,11 L-5,9 L-4,9 L-4,7 L-3,7 L-3,5 L-2,5 L-2,4 L-1,4 L-1,1 L0,1 Z " fill="#D79242" transform="translate(489,451)"/>
<path d="M0,0 L1,0 L1,1 L3,1 L3,5 L2,5 L2,20 L3,20 L3,23 L4,23 L4,27 L5,27 L5,28 L6,28 L6,33 L5,33 L5,32 L4,32 L4,30 L3,30 L3,28 L2,28 L2,27 L1,27 L1,25 L0,25 L0,24 L-1,24 L-1,23 L-2,23 L-2,22 L-3,22 L-3,21 L-4,21 L-4,20 L-5,20 L-5,19 L-7,19 L-7,18 L-9,18 L-9,17 L-11,17 L-11,16 L-13,16 L-13,15 L-15,15 L-15,14 L-18,14 L-18,13 L-21,13 L-21,12 L-25,12 L-25,11 L-17,11 L-17,12 L-15,12 L-15,13 L-13,13 L-13,14 L-10,14 L-10,15 L-9,15 L-9,16 L-7,16 L-7,17 L-5,17 L-5,18 L-1,18 L-1,19 L0,19 L0,15 L-1,15 L-1,13 L-4,13 L-4,12 L-3,12 L-3,11 L0,11 L0,4 L1,4 L1,2 L0,2 Z " fill="#DE882B" transform="translate(529,501)"/>
<path d="M0,0 L6,0 L6,65 L5,65 L5,66 L4,66 L4,67 L1,67 L1,66 L0,66 Z M1,1 L1,64 L2,64 L2,65 L5,65 L5,2 L4,2 L4,1 Z " fill="#D59853" transform="translate(579,391)"/>
<path d="M0,0 L2,0 L2,54 L1,54 L1,68 L0,68 L0,69 L-2,69 L-2,68 L-3,68 L-3,66 L-2,66 L-2,67 L-1,67 L-1,55 L0,55 Z " fill="#F8E2B8" transform="translate(640,492)"/>
<path d="M0,0 L1,0 L1,8 L0,8 L0,14 L-1,14 L-1,19 L-2,19 L-2,26 L-3,26 L-3,32 L-4,32 L-4,42 L-5,42 L-5,58 L-4,58 L-4,64 L-3,64 L-3,70 L-2,70 L-2,72 L-1,72 L-1,74 L0,74 L0,76 L1,76 L1,78 L2,78 L2,80 L0,80 L0,78 L-2,78 L-2,76 L-3,76 L-3,75 L-4,75 L-4,70 L-5,70 L-5,62 L-6,62 L-6,40 L-5,40 L-5,30 L-4,30 L-4,22 L-3,22 L-3,15 L-2,15 L-2,10 L-3,10 L-3,8 L-1,8 L-1,7 L0,7 L0,3 L-3,3 L-3,4 L-6,4 L-6,3 L-4,3 L-4,2 L-2,2 L-2,1 L0,1 Z " fill="#D38D3C" transform="translate(544,402)"/>
<path d="M0,0 L2,0 L2,1 L1,1 L1,2 L0,2 L0,4 L-1,4 L-1,5 L-2,5 L-2,6 L-4,6 L-4,7 L-5,7 L-5,8 L-6,8 L-6,9 L-7,9 L-7,11 L-10,11 L-10,12 L-11,12 L-11,13 L-12,13 L-12,14 L-13,14 L-13,15 L-14,15 L-14,16 L-15,16 L-15,17 L-16,17 L-16,19 L-18,19 L-18,22 L-19,22 L-19,23 L-20,23 L-20,24 L-21,24 L-21,25 L-23,25 L-23,27 L-24,27 L-24,32 L-20,32 L-20,35 L-25,35 L-25,33 L-26,33 L-26,32 L-27,32 L-27,33 L-28,33 L-28,34 L-30,34 L-30,35 L-31,35 L-31,36 L-32,36 L-32,37 L-33,37 L-33,38 L-34,38 L-34,36 L-33,36 L-33,35 L-32,35 L-32,34 L-31,34 L-31,32 L-30,32 L-30,31 L-29,31 L-29,30 L-28,30 L-28,28 L-27,28 L-27,26 L-26,26 L-26,25 L-25,25 L-25,24 L-24,24 L-24,23 L-23,23 L-23,22 L-22,22 L-22,21 L-21,21 L-21,20 L-20,20 L-20,18 L-19,18 L-19,17 L-18,17 L-18,16 L-17,16 L-17,15 L-15,15 L-15,14 L-14,14 L-14,13 L-13,13 L-13,12 L-12,12 L-12,11 L-11,11 L-11,9 L-9,9 L-9,8 L-8,8 L-8,7 L-7,7 L-7,6 L-6,6 L-6,5 L-5,5 L-5,4 L-4,4 L-4,3 L-2,3 L-2,2 L-1,2 L-1,1 L0,1 Z " fill="#D58E39" transform="translate(524,413)"/>
<path d="M0,0 L1,0 L1,1 L3,1 L3,2 L5,2 L5,57 L4,57 L4,69 L3,69 L3,68 L2,68 L2,67 L1,67 L1,66 L-1,66 L-1,65 L-2,65 L-2,63 L-3,63 L-3,62 L-4,62 L-4,61 L-5,61 L-5,60 L-6,60 L-6,59 L-7,59 L-7,58 L-8,58 L-8,57 L-9,57 L-9,56 L-10,56 L-10,55 L-11,55 L-11,54 L-9,54 L-9,55 L-8,55 L-8,56 L-7,56 L-7,57 L-6,57 L-6,58 L-5,58 L-5,59 L-4,59 L-4,60 L-2,60 L-2,62 L1,62 L1,57 L-1,57 L-1,54 L2,54 L2,56 L4,56 L4,3 L1,3 L1,2 L0,2 Z " fill="#DB8930" transform="translate(635,490)"/>
<path d="M0,0 L1,0 L1,26 L2,26 L2,92 L3,92 L3,94 L4,94 L4,95 L5,95 L5,97 L6,97 L6,98 L7,98 L7,100 L8,100 L8,102 L6,102 L6,101 L5,101 L5,99 L4,99 L4,96 L2,96 L2,94 L1,94 L1,36 L0,36 Z " fill="#FDEABF" transform="translate(654,494)"/>
<path d="M0,0 L1,0 L1,1 L2,1 L2,8 L3,8 L3,9 L4,9 L4,1 L7,1 L7,5 L8,5 L8,14 L7,14 L7,17 L6,17 L6,18 L5,18 L5,21 L3,21 L3,17 L2,17 L2,15 L1,15 L1,11 L0,11 L0,9 L-1,9 L-1,1 L0,1 Z " fill="#FAFDF8" transform="translate(534,511)"/>
<path d="M0,0 L1,0 L1,28 L2,28 L2,35 L4,35 L4,38 L5,38 L5,39 L6,39 L6,41 L7,41 L7,42 L8,42 L8,43 L10,43 L10,45 L11,45 L11,48 L12,48 L12,50 L13,50 L13,52 L14,52 L14,54 L15,54 L15,55 L16,55 L16,56 L17,56 L17,59 L20,59 L20,67 L19,67 L19,65 L18,65 L18,62 L17,62 L17,61 L16,61 L16,58 L15,58 L15,56 L14,56 L14,55 L13,55 L13,54 L12,54 L12,52 L11,52 L11,50 L10,50 L10,49 L9,49 L9,47 L8,47 L8,45 L7,45 L7,44 L6,44 L6,42 L5,42 L5,40 L4,40 L4,39 L3,39 L3,37 L2,37 L2,36 L1,36 L1,34 L0,34 Z " fill="#E19C4F" transform="translate(656,552)"/>
<path d="M0,0 L1,0 L1,5 L0,5 L0,12 L-1,12 L-1,20 L-2,20 L-2,30 L-3,30 L-3,52 L-4,52 L-4,38 L-5,38 L-5,32 L-4,32 L-4,17 L-5,17 L-5,4 L-3,4 L-3,13 L-2,13 L-2,10 L-1,10 L-1,1 L0,1 Z " fill="#E8841C" transform="translate(541,412)"/>
<path d="M0,0 L1,0 L1,3 L2,3 L2,6 L3,6 L3,10 L4,10 L4,12 L5,12 L5,14 L6,14 L6,17 L7,17 L7,19 L8,19 L8,22 L9,22 L9,23 L10,23 L10,25 L11,25 L11,27 L12,27 L12,28 L14,28 L14,27 L15,27 L15,26 L16,26 L16,25 L17,25 L17,24 L18,24 L18,23 L19,23 L19,22 L21,22 L21,25 L20,25 L20,27 L18,27 L18,29 L16,29 L16,30 L9,30 L9,28 L7,28 L7,24 L6,24 L6,20 L5,20 L5,16 L3,16 L3,14 L1,14 L1,4 L0,4 Z " fill="#FBF2D6" transform="translate(475,554)"/>
<path d="M0,0 L5,0 L5,1 L6,1 L6,3 L7,3 L7,4 L10,4 L10,5 L11,5 L11,6 L13,6 L13,8 L14,8 L14,9 L20,9 L20,11 L19,11 L19,15 L20,15 L20,17 L24,17 L24,18 L25,18 L25,22 L26,22 L26,24 L27,24 L27,25 L28,25 L28,27 L27,27 L27,26 L26,26 L26,25 L25,25 L25,23 L24,23 L24,22 L23,22 L23,21 L22,21 L22,20 L21,20 L21,19 L20,19 L20,18 L19,18 L19,17 L18,17 L18,16 L17,16 L17,15 L16,15 L16,14 L15,14 L15,13 L14,13 L14,12 L13,12 L13,11 L12,11 L12,10 L11,10 L11,9 L10,9 L10,8 L9,8 L9,7 L7,7 L7,6 L6,6 L6,5 L5,5 L5,4 L4,4 L4,3 L3,3 L3,2 L2,2 L2,1 L0,1 Z " fill="#FBFCEE" transform="translate(602,544)"/>
<path d="M0,0 L1,0 L1,20 L3,20 L3,19 L4,19 L4,17 L5,17 L5,16 L10,16 L10,17 L9,17 L9,18 L11,18 L11,22 L35,22 L35,23 L2,23 L2,22 L0,22 Z " fill="#E6851D" transform="translate(581,624)"/>
<path d="M0,0 L1,0 L1,1 L2,1 L2,2 L3,2 L3,3 L4,3 L4,4 L5,4 L5,5 L6,5 L6,6 L7,6 L7,7 L9,7 L9,8 L10,8 L10,9 L12,9 L12,10 L14,10 L14,11 L15,11 L15,48 L14,48 L14,49 L12,49 L12,50 L10,50 L10,51 L8,51 L8,52 L6,52 L6,53 L4,53 L4,54 L2,54 L2,55 L0,55 L0,56 L-2,56 L-2,54 L1,54 L1,52 L4,52 L4,51 L7,51 L7,50 L8,50 L8,49 L10,49 L10,48 L13,48 L13,46 L14,46 L14,12 L13,12 L13,11 L11,11 L11,10 L8,10 L8,8 L5,8 L5,7 L3,7 L3,6 L2,6 L2,3 L1,3 L1,2 L0,2 Z " fill="#D19247" transform="translate(546,482)"/>
<path d="M0,0 L1,0 L1,34 L2,34 L2,39 L3,39 L3,43 L4,43 L4,48 L5,48 L5,52 L2,52 L2,42 L1,42 L1,37 L0,37 L0,32 L-1,32 L-1,4 L0,4 Z " fill="#FDE8C1" transform="translate(470,502)"/>
<path d="M0,0 L1,0 L1,7 L2,7 L2,16 L3,16 L3,23 L4,23 L4,39 L3,39 L3,45 L2,45 L2,49 L1,49 L1,53 L0,53 L0,56 L-1,56 L-1,57 L-2,57 L-2,59 L-3,59 L-3,52 L-1,52 L-1,51 L0,51 L0,43 L2,43 L2,19 L1,19 L1,8 L0,8 Z " fill="#F8DCAB" transform="translate(594,421)"/>
<path d="M0,0 L1,0 L1,28 L2,28 L2,32 L3,32 L3,35 L4,35 L4,36 L6,36 L6,38 L7,38 L7,40 L4,40 L4,38 L3,38 L3,36 L2,36 L2,33 L1,33 L1,31 L0,31 L0,32 L-1,32 L-1,28 L0,28 L0,20 L-1,20 L-1,17 L-2,17 L-2,15 L-3,15 L-3,21 L-4,21 L-4,12 L-2,12 L-2,9 L-1,9 L-1,4 L0,4 Z " fill="#E4841D" transform="translate(614,436)"/>
<path d="M0,0 L26,0 L26,2 L39,2 L39,3 L40,3 L40,4 L42,4 L42,5 L44,5 L44,6 L40,6 L40,5 L34,5 L34,4 L29,4 L29,3 L24,3 L24,2 L-2,2 L-2,1 L0,1 Z " fill="#FEEFCD" transform="translate(592,388)"/>
<path d="M0,0 L1,0 L1,1 L2,1 L2,7 L3,7 L3,11 L4,11 L4,39 L3,39 L3,45 L4,45 L4,47 L3,47 L3,49 L1,49 L1,50 L0,50 L0,51 L-1,51 L-1,52 L-3,52 L-3,50 L-2,50 L-2,48 L-1,48 L-1,47 L0,47 L0,43 L1,43 L1,41 L2,41 L2,36 L3,36 L3,13 L2,13 L2,8 L1,8 L1,5 L0,5 Z " fill="#D49147" transform="translate(677,425)"/>
<path d="M0,0 L1,0 L1,1 L2,1 L2,2 L3,2 L3,4 L4,4 L4,5 L7,5 L7,6 L8,6 L8,7 L9,7 L9,8 L10,8 L10,9 L11,9 L11,10 L12,10 L12,11 L15,11 L15,12 L16,12 L16,13 L17,13 L17,14 L18,14 L18,16 L19,16 L19,17 L20,17 L20,18 L21,18 L21,19 L22,19 L22,21 L21,21 L21,20 L20,20 L20,19 L17,19 L17,18 L15,18 L15,16 L14,16 L14,13 L12,13 L12,12 L11,12 L11,11 L9,11 L9,10 L7,10 L7,8 L4,8 L4,11 L0,11 L0,7 L1,7 L1,6 L2,6 L2,3 L1,3 L1,2 L0,2 Z " fill="#E4861C" transform="translate(682,421)"/>
<path d="M0,0 L4,0 L4,1 L8,1 L8,2 L9,2 L9,4 L12,4 L12,5 L14,5 L14,7 L19,7 L19,6 L21,6 L21,11 L24,11 L24,14 L25,14 L25,15 L26,15 L26,16 L27,16 L27,17 L28,17 L28,18 L29,18 L29,19 L30,19 L30,21 L29,21 L29,20 L28,20 L28,19 L27,19 L27,18 L26,18 L26,17 L25,17 L25,16 L24,16 L24,15 L22,15 L22,14 L21,14 L21,13 L20,13 L20,12 L18,12 L18,11 L17,11 L17,10 L16,10 L16,9 L14,9 L14,8 L12,8 L12,6 L10,6 L10,5 L8,5 L8,4 L6,4 L6,3 L4,3 L4,2 L-1,2 L-1,1 L0,1 Z " fill="#D98F3C" transform="translate(594,523)"/>
<path d="M0,0 L1,0 L1,17 L-2,17 L-2,16 L-4,16 L-4,15 L-7,15 L-7,14 L-10,14 L-10,13 L-12,13 L-12,12 L-14,12 L-14,10 L-16,10 L-16,9 L-19,9 L-19,8 L-21,8 L-21,7 L-23,7 L-23,6 L-24,6 L-24,5 L-26,5 L-26,4 L-27,4 L-27,3 L-23,3 L-23,4 L-22,4 L-22,5 L-21,5 L-21,6 L-19,6 L-19,7 L-18,7 L-18,8 L-14,8 L-14,9 L-11,9 L-11,10 L-10,10 L-10,11 L-4,11 L-4,14 L-2,14 L-2,15 L0,15 Z " fill="#D68F41" transform="translate(556,624)"/>
<path d="M0,0 L13,0 L13,1 L18,1 L18,2 L20,2 L20,3 L23,3 L23,5 L22,5 L22,6 L21,6 L21,5 L18,5 L18,4 L17,4 L17,3 L15,3 L15,2 L1,2 L1,3 L-3,3 L-3,32 L-4,32 L-4,2 L-2,2 L-2,1 L0,1 Z " fill="#FEFAE4" transform="translate(579,536)"/>
<path d="M0,0 L1,0 L1,1 L2,1 L2,2 L1,2 L1,4 L0,4 L0,5 L-1,5 L-1,6 L-2,6 L-2,8 L-3,8 L-3,9 L-4,9 L-4,10 L-5,10 L-5,12 L-6,12 L-6,14 L-7,14 L-7,15 L-8,15 L-8,16 L-9,16 L-9,17 L-10,17 L-10,19 L-11,19 L-11,20 L-12,20 L-12,21 L-13,21 L-13,22 L-14,22 L-14,23 L-15,23 L-15,24 L-16,24 L-16,20 L-14,20 L-14,19 L-12,19 L-12,17 L-11,17 L-11,11 L-14,11 L-14,8 L-9,8 L-9,11 L-6,11 L-6,8 L-4,8 L-4,4 L-3,4 L-3,3 L-1,3 L-1,2 L0,2 Z " fill="#DD882C" transform="translate(710,584)"/>
<path d="M0,0 L5,0 L5,1 L6,1 L6,8 L7,8 L7,10 L6,10 L6,30 L5,30 L5,38 L4,38 L4,2 L1,2 L1,3 L-1,3 L-1,4 L-2,4 L-2,1 L0,1 Z " fill="#FEF9E1" transform="translate(556,546)"/>
<path d="M0,0 L1,0 L1,1 L2,1 L2,2 L3,2 L3,4 L4,4 L4,5 L5,5 L5,6 L6,6 L6,8 L7,8 L7,10 L8,10 L8,12 L9,12 L9,14 L10,14 L10,15 L11,15 L11,17 L12,17 L12,19 L13,19 L13,21 L14,21 L14,24 L15,24 L15,26 L16,26 L16,28 L17,28 L17,31 L18,31 L18,33 L17,33 L17,32 L16,32 L16,30 L15,30 L15,28 L14,28 L14,26 L13,26 L13,22 L11,22 L11,20 L10,20 L10,18 L9,18 L9,17 L8,17 L8,16 L7,16 L7,14 L6,14 L6,13 L5,13 L5,12 L4,12 L4,10 L3,10 L3,6 L2,6 L2,4 L1,4 L1,3 L0,3 Z " fill="#D58F40" transform="translate(704,442)"/>
<path d="M0,0 L2,0 L2,8 L3,8 L3,16 L5,16 L5,21 L6,21 L6,24 L7,24 L7,30 L8,30 L8,33 L9,33 L9,34 L10,34 L10,40 L9,40 L9,38 L8,38 L8,36 L7,36 L7,32 L6,32 L6,29 L5,29 L5,26 L4,26 L4,22 L3,22 L3,17 L2,17 L2,13 L1,13 L1,8 L0,8 Z " fill="#D39143" transform="translate(471,528)"/>
<path d="M0,0 L4,0 L4,1 L7,1 L7,2 L10,2 L10,3 L12,3 L12,4 L14,4 L14,5 L16,5 L16,6 L18,6 L18,7 L20,7 L20,8 L21,8 L21,9 L22,9 L22,10 L23,10 L23,11 L20,11 L20,9 L19,9 L19,8 L16,8 L16,7 L14,7 L14,6 L11,6 L11,5 L10,5 L10,4 L8,4 L8,5 L7,5 L7,4 L5,4 L5,8 L6,8 L6,11 L8,11 L8,12 L7,12 L7,13 L6,13 L6,12 L5,12 L5,11 L4,11 L4,9 L3,9 L3,7 L2,7 L2,5 L1,5 L1,2 L0,2 Z " fill="#FBEAC1" transform="translate(504,513)"/>
<path d="M0,0 L1,0 L1,4 L0,4 L0,5 L-1,5 L-1,6 L-2,6 L-2,8 L-3,8 L-3,9 L-8,9 L-8,10 L-9,10 L-9,12 L-11,12 L-11,13 L-15,13 L-15,39 L-16,39 L-16,12 L-14,12 L-14,11 L-13,11 L-13,10 L-11,10 L-11,9 L-9,9 L-9,8 L-8,8 L-8,7 L-6,7 L-6,6 L-5,6 L-5,5 L-4,5 L-4,4 L-3,4 L-3,3 L-2,3 L-2,2 L-1,2 L-1,1 L0,1 Z " fill="#D9994E" transform="translate(671,481)"/>
<path d="M0,0 L1,0 L1,1 L2,1 L2,4 L1,4 L1,5 L0,5 L0,7 L-1,7 L-1,9 L-2,9 L-2,11 L-3,11 L-3,13 L-4,13 L-4,14 L-5,14 L-5,15 L-6,15 L-6,16 L-7,16 L-7,17 L-8,17 L-8,18 L-9,18 L-9,19 L-10,19 L-10,20 L-12,20 L-12,21 L-13,21 L-13,22 L-15,22 L-15,23 L-17,23 L-17,24 L-18,24 L-18,25 L-19,25 L-19,22 L-18,22 L-18,21 L-16,21 L-16,20 L-14,20 L-14,19 L-13,19 L-13,18 L-10,18 L-10,16 L-8,16 L-8,15 L-7,15 L-7,12 L-5,12 L-5,10 L-4,10 L-4,6 L-3,6 L-3,2 L-2,2 L-2,4 L-1,4 L-1,2 L0,2 Z " fill="#FCEFCD" transform="translate(675,468)"/>
<path d="M0,0 L2,0 L2,1 L4,1 L4,3 L6,3 L6,2 L7,2 L7,4 L8,4 L8,5 L9,5 L9,8 L11,8 L11,9 L12,9 L12,10 L13,10 L13,11 L14,11 L14,12 L15,12 L15,13 L17,13 L17,16 L16,16 L16,15 L15,15 L15,14 L14,14 L14,13 L13,13 L13,12 L12,12 L12,11 L10,11 L10,10 L9,10 L9,9 L8,9 L8,8 L7,8 L7,7 L5,7 L5,6 L4,6 L4,5 L2,5 L2,4 L1,4 L1,3 L-1,3 L-1,5 L0,5 L0,8 L1,8 L1,10 L0,10 L0,9 L-1,9 L-1,7 L-2,7 L-2,6 L-4,6 L-4,5 L-3,5 L-3,1 L0,1 Z " fill="#FCEFD1" transform="translate(673,409)"/>
<path d="M0,0 L3,0 L3,3 L4,3 L4,4 L7,4 L7,3 L8,3 L8,1 L9,1 L9,0 L10,0 L10,5 L8,5 L8,6 L9,6 L9,9 L10,9 L10,17 L9,17 L9,19 L10,19 L10,20 L9,20 L9,21 L10,21 L10,23 L4,23 L4,21 L2,21 L2,19 L3,19 L3,20 L5,20 L5,21 L6,21 L6,22 L8,22 L8,10 L7,10 L7,8 L6,8 L6,7 L5,7 L5,6 L4,6 L4,5 L3,5 L3,4 L2,4 L2,2 L1,2 L1,1 L0,1 Z " fill="#FBF0D6" transform="translate(630,571)"/>
<path d="M0,0 L1,0 L1,4 L2,4 L2,10 L3,10 L3,18 L4,18 L4,26 L5,26 L5,30 L3,30 L3,33 L2,33 L2,19 L1,19 L1,18 L0,18 Z " fill="#FCEDC9" transform="translate(589,390)"/>
<path d="M0,0 L2,0 L2,2 L1,2 L1,4 L-1,4 L-1,5 L-3,5 L-3,6 L-7,6 L-7,7 L-8,7 L-8,8 L-11,8 L-11,9 L-12,9 L-12,10 L-13,10 L-13,12 L-15,12 L-15,13 L-17,13 L-17,14 L-20,14 L-20,16 L-21,16 L-21,17 L-25,17 L-25,16 L-24,16 L-24,15 L-22,15 L-22,14 L-21,14 L-21,13 L-20,13 L-20,12 L-18,12 L-18,11 L-17,11 L-17,10 L-15,10 L-15,9 L-13,9 L-13,8 L-12,8 L-12,7 L-11,7 L-11,6 L-9,6 L-9,5 L-7,5 L-7,4 L-5,4 L-5,3 L-4,3 L-4,2 L-2,2 L-2,1 L0,1 Z " fill="#FBECC5" transform="translate(548,536)"/>
<path d="M0,0 L1,0 L1,1 L2,1 L2,2 L3,2 L3,4 L4,4 L4,5 L5,5 L5,7 L6,7 L6,9 L7,9 L7,10 L8,10 L8,8 L9,8 L9,10 L12,10 L12,13 L9,13 L9,11 L8,11 L8,12 L-1,12 L-1,11 L-5,11 L-5,10 L-8,10 L-8,9 L-9,9 L-9,8 L-11,8 L-11,7 L-12,7 L-12,6 L-10,6 L-10,7 L-6,7 L-6,8 L-5,8 L-5,9 L-4,9 L-4,10 L3,10 L3,9 L4,9 L4,6 L3,6 L3,5 L1,5 L1,2 L0,2 Z " fill="#FBEEC3" transform="translate(527,524)"/>
<path d="M0,0 L1,0 L1,2 L2,2 L2,5 L3,5 L3,9 L2,9 L2,13 L3,13 L3,21 L1,21 L1,37 L0,37 L0,2 L-1,2 L-1,1 L0,1 Z M-1,37 L0,37 L0,38 L-1,38 Z " fill="#FCFDF0" transform="translate(563,491)"/>
<path d="M0,0 L1,0 L1,2 L2,2 L2,11 L3,11 L3,16 L6,16 L6,23 L5,23 L5,25 L3,25 L3,26 L2,26 L2,28 L1,28 L1,4 L0,4 Z " fill="#E6831C" transform="translate(680,432)"/>
<path d="M0,0 L1,0 L1,4 L0,4 L0,10 L-1,10 L-1,11 L-2,11 L-2,14 L-3,14 L-3,17 L-4,17 L-4,19 L-5,19 L-5,28 L-6,28 L-6,47 L-7,47 L-7,23 L-6,23 L-6,18 L-5,18 L-5,14 L-4,14 L-4,12 L-3,12 L-3,7 L-2,7 L-2,4 L-1,4 L-1,2 L0,2 Z " fill="#FAE6BF" transform="translate(623,414)"/>
<path d="M0,0 L1,0 L1,13 L0,13 L0,21 L-1,21 L-1,28 L-2,28 L-2,29 L-3,29 L-3,32 L-4,32 L-4,29 L-5,29 L-5,25 L-4,25 L-4,21 L-3,21 L-3,18 L-2,18 L-2,13 L-1,13 L-1,7 L0,7 Z " fill="#FBECC4" transform="translate(729,531)"/>
<path d="M0,0 L1,0 L1,2 L2,2 L2,4 L1,4 L1,5 L0,5 L0,41 L1,41 L1,55 L0,55 L0,43 L-1,43 L-1,7 L-2,7 L-2,3 L-1,3 L-1,2 L0,2 Z M-2,43 L-1,43 L-1,44 L-2,44 Z " fill="#FEFCE5" transform="translate(654,489)"/>
<path d="M0,0 L16,0 L16,1 L17,1 L17,2 L22,2 L22,3 L24,3 L24,5 L26,5 L26,7 L27,7 L27,8 L25,8 L25,7 L24,7 L24,6 L22,6 L22,5 L20,5 L20,4 L18,4 L18,3 L16,3 L16,2 L9,2 L9,1 L2,1 L2,2 L-4,2 L-4,3 L-8,3 L-8,4 L-10,4 L-10,3 L-9,3 L-9,1 L0,1 Z " fill="#D38D40" transform="translate(608,583)"/>
<path d="M0,0 L4,0 L4,4 L5,4 L5,5 L6,5 L6,6 L7,6 L7,7 L9,7 L9,8 L10,8 L10,9 L12,9 L12,10 L14,10 L14,12 L15,12 L15,13 L21,13 L21,14 L23,14 L23,15 L20,15 L20,14 L14,14 L14,13 L13,13 L13,12 L9,12 L9,11 L8,11 L8,10 L6,10 L6,8 L3,8 L3,5 L1,5 L1,3 L0,3 Z " fill="#DA862A" transform="translate(594,587)"/>
<path d="M0,0 L1,0 L1,2 L2,2 L2,5 L3,5 L3,19 L2,19 L2,21 L1,21 L1,23 L0,23 L0,25 L-4,25 L-4,23 L-5,23 L-5,20 L-6,20 L-6,19 L-7,19 L-7,15 L-8,15 L-8,13 L-7,13 L-7,14 L-5,14 L-5,17 L-4,17 L-4,19 L-3,19 L-3,23 L-1,23 L-1,20 L0,20 L0,19 L1,19 L1,16 L2,16 L2,7 L1,7 L1,3 L0,3 Z " fill="#FDF1CF" transform="translate(540,509)"/>
<path d="M0,0 L4,0 L4,1 L3,1 L3,2 L2,2 L2,3 L1,3 L1,4 L-1,4 L-1,5 L-2,5 L-2,6 L-3,6 L-3,7 L-4,7 L-4,9 L-5,9 L-5,10 L-6,10 L-6,11 L-7,11 L-7,12 L-8,12 L-8,13 L-9,13 L-9,14 L-10,14 L-10,15 L-11,15 L-11,17 L-12,17 L-12,19 L-13,19 L-13,20 L-14,20 L-14,21 L-15,21 L-15,23 L-16,23 L-16,18 L-13,18 L-13,17 L-14,17 L-14,16 L-12,16 L-12,12 L-11,12 L-11,11 L-9,11 L-9,9 L-8,9 L-8,8 L-6,8 L-6,7 L-5,7 L-5,6 L-4,6 L-4,4 L-2,4 L-2,2 L-1,2 L-1,1 L0,1 Z " fill="#FBEABE" transform="translate(508,424)"/>
<path d="M0,0 L2,0 L2,2 L1,2 L1,4 L0,4 L0,7 L-1,7 L-1,10 L-2,10 L-2,13 L-3,13 L-3,18 L-4,18 L-4,20 L-5,20 L-5,26 L-6,26 L-6,32 L-7,32 L-7,18 L-5,18 L-5,15 L-4,15 L-4,12 L-3,12 L-3,4 L-1,4 L-1,2 L0,2 Z " fill="#FDECC4" transform="translate(478,470)"/>
<path d="M0,0 L3,0 L3,2 L2,2 L2,7 L6,7 L6,10 L1,10 L1,8 L0,8 L0,7 L-1,7 L-1,8 L-2,8 L-2,9 L-4,9 L-4,10 L-5,10 L-5,11 L-6,11 L-6,12 L-7,12 L-7,13 L-8,13 L-8,11 L-7,11 L-7,10 L-6,10 L-6,9 L-5,9 L-5,7 L-4,7 L-4,6 L-3,6 L-3,5 L-2,5 L-2,3 L-1,3 L-1,1 L0,1 Z " fill="#DF8C2D" transform="translate(498,438)"/>
<path d="M0,0 L4,0 L4,1 L3,1 L3,2 L2,2 L2,3 L1,3 L1,4 L0,4 L0,5 L-1,5 L-1,6 L-2,6 L-2,7 L-3,7 L-3,8 L-4,8 L-4,9 L-5,9 L-5,10 L-6,10 L-6,11 L-7,11 L-7,12 L-9,12 L-9,13 L-10,13 L-10,14 L-11,14 L-11,15 L-13,15 L-13,13 L-14,13 L-14,11 L-12,11 L-12,12 L-11,12 L-11,11 L-9,11 L-9,9 L-7,9 L-7,5 L-5,5 L-5,4 L-2,4 L-2,3 L0,3 Z " fill="#D88E3A" transform="translate(690,608)"/>
<path d="M0,0 L2,0 L2,5 L1,5 L1,29 L2,29 L2,32 L3,32 L3,36 L4,36 L4,38 L5,38 L5,40 L3,40 L3,39 L2,39 L2,36 L1,36 L1,32 L0,32 Z " fill="#D49144" transform="translate(615,432)"/>
<path d="M0,0 L1,0 L1,34 L2,34 L2,36 L3,36 L3,37 L4,37 L4,39 L5,39 L5,40 L6,40 L6,42 L7,42 L7,44 L5,44 L5,43 L4,43 L4,41 L3,41 L3,38 L1,38 L1,36 L0,36 Z " fill="#FEF6D8" transform="translate(655,552)"/>
<path d="M0,0 L1,0 L1,12 L2,12 L2,15 L3,15 L3,19 L4,19 L4,20 L5,20 L5,25 L4,25 L4,24 L3,24 L3,22 L2,22 L2,20 L1,20 L1,19 L0,19 L0,17 L-1,17 L-1,16 L-2,16 L-2,15 L-3,15 L-3,14 L-4,14 L-4,13 L-5,13 L-5,12 L-6,12 L-6,11 L-4,11 L-4,12 L-3,12 L-3,13 L-2,13 L-2,14 L0,14 Z " fill="#CE9C54" transform="translate(530,509)"/>
<path d="M0,0 L2,0 L2,1 L1,1 L1,6 L2,6 L2,8 L6,8 L6,11 L8,11 L8,12 L10,12 L10,14 L11,14 L11,15 L9,15 L9,14 L8,14 L8,13 L7,13 L7,12 L5,12 L5,11 L3,11 L3,10 L2,10 L2,9 L1,9 L1,8 L0,8 L0,7 L-1,7 L-1,6 L-3,6 L-3,5 L-4,5 L-4,4 L-5,4 L-5,3 L-6,3 L-6,2 L-3,2 L-3,1 L0,1 Z " fill="#DD8C30" transform="translate(518,612)"/>
<path d="M0,0 L2,0 L2,18 L0,18 L0,16 L-2,16 L-2,12 L-1,12 L-1,9 L-2,9 L-2,5 L0,5 Z " fill="#E6851E" transform="translate(637,528)"/>
<path d="M0,0 L1,0 L1,11 L0,11 L0,16 L-1,16 L-1,18 L-2,18 L-2,20 L-4,20 L-4,21 L-6,21 L-6,20 L-19,20 L-19,19 L-10,19 L-10,18 L-8,18 L-8,17 L-7,17 L-7,19 L-4,19 L-4,16 L-3,16 L-3,14 L-2,14 L-2,12 L-1,12 L-1,10 L0,10 Z " fill="#DA8B2D" transform="translate(543,518)"/>
<path d="M0,0 L2,0 L2,1 L3,1 L3,4 L4,4 L4,6 L5,6 L5,7 L7,7 L7,10 L8,10 L8,14 L9,14 L9,23 L8,23 L8,20 L7,20 L7,16 L6,16 L6,14 L5,14 L5,11 L4,11 L4,8 L3,8 L3,6 L2,6 L2,4 L1,4 L1,1 L0,1 Z " fill="#FCEFCF" transform="translate(717,462)"/>
<path d="M0,0 L3,0 L3,1 L2,1 L2,3 L1,3 L1,4 L0,4 L0,5 L-1,5 L-1,6 L-2,6 L-2,8 L-3,8 L-3,10 L-4,10 L-4,12 L-5,12 L-5,14 L-6,14 L-6,16 L-7,16 L-7,18 L-8,18 L-8,20 L-9,20 L-9,23 L-10,23 L-10,15 L-7,15 L-7,10 L-5,10 L-5,8 L-4,8 L-4,6 L-3,6 L-3,3 L-1,3 L-1,1 L0,1 Z " fill="#D78A31" transform="translate(630,398)"/>
<path d="M0,0 L1,0 L1,1 L2,1 L2,2 L3,2 L3,4 L4,4 L4,6 L5,6 L5,9 L6,9 L6,12 L3,12 L3,13 L0,13 Z " fill="#D69136" transform="translate(659,620)"/>
<path d="M0,0 L1,0 L1,1 L2,1 L2,3 L3,3 L3,5 L4,5 L4,6 L5,6 L5,8 L6,8 L6,10 L7,10 L7,11 L8,11 L8,12 L9,12 L9,14 L10,14 L10,17 L11,17 L11,18 L12,18 L12,20 L11,20 L11,19 L10,19 L10,18 L7,18 L7,15 L6,15 L6,12 L5,12 L5,9 L4,9 L4,8 L2,8 L2,5 L1,5 L1,6 L0,6 Z " fill="#FAE9C3" transform="translate(662,596)"/>
<path d="M0,0 L2,0 L2,5 L0,5 L0,6 L-1,6 L-1,7 L-8,7 L-8,3 L-7,3 L-7,2 L-3,2 L-3,1 L0,1 Z " fill="#EA8119" transform="translate(557,551)"/>
<path d="M0,0 L1,0 L1,8 L2,8 L2,9 L3,9 L3,13 L-1,13 L-1,11 L-4,11 L-4,7 L-3,7 L-3,5 L-2,5 L-2,4 L-1,4 L-1,1 L0,1 Z " fill="#EA831A" transform="translate(489,451)"/>
<path d="M0,0 L4,0 L4,1 L3,1 L3,2 L2,2 L2,3 L1,3 L1,4 L-1,4 L-1,5 L-3,5 L-3,6 L-5,6 L-5,7 L-6,7 L-6,26 L-7,26 L-7,4 L-4,4 L-4,3 L-3,3 L-3,2 L-2,2 L-2,1 L0,1 Z " fill="#FDE8BF" transform="translate(582,486)"/>
<path d="M0,0 L1,0 L1,1 L2,1 L2,2 L3,2 L3,3 L4,3 L4,4 L5,4 L5,5 L6,5 L6,6 L7,6 L7,8 L8,8 L8,9 L9,9 L9,10 L10,10 L10,11 L11,11 L11,12 L12,12 L12,14 L13,14 L13,15 L14,15 L14,16 L15,16 L15,17 L14,17 L14,20 L13,20 L13,16 L12,16 L12,15 L11,15 L11,14 L10,14 L10,12 L9,12 L9,11 L6,11 L6,10 L5,10 L5,6 L1,6 L1,4 L0,4 Z " fill="#D49041" transform="translate(620,561)"/>
<path d="M0,0 L3,0 L3,28 L2,28 L2,3 L0,3 L0,4 L-3,4 L-3,5 L-7,5 L-7,4 L-5,4 L-5,3 L-4,3 L-4,2 L-2,2 L-2,1 L0,1 Z " fill="#D58F46" transform="translate(557,548)"/>
<path d="M0,0 L11,0 L11,1 L14,1 L14,2 L15,2 L15,3 L7,3 L7,2 L1,2 L1,4 L-1,4 L-1,5 L-2,5 L-2,13 L-3,13 L-3,4 L-2,4 L-2,3 L-1,3 L-1,1 L0,1 Z " fill="#DF882A" transform="translate(581,539)"/>
<path d="M0,0 L20,0 L20,1 L11,1 L11,2 L7,2 L7,3 L6,3 L6,6 L5,6 L5,4 L4,4 L4,6 L3,6 L3,5 L2,5 L2,4 L1,4 L1,3 L0,3 Z " fill="#3F3F3F" transform="translate(320,758)"/>
<path d="M0,0 L1,0 L1,1 L2,1 L2,0 L4,0 L4,1 L5,1 L5,0 L6,0 L6,2 L5,2 L5,5 L6,5 L6,6 L5,6 L5,8 L7,8 L7,9 L6,9 L6,10 L5,10 L5,11 L4,11 L4,9 L3,9 L3,7 L2,7 L2,6 L1,6 L1,5 L0,5 L0,4 L-2,4 L-2,3 L-3,3 L-3,2 L-1,2 L-1,1 L0,1 Z " fill="#F1F1F1" transform="translate(737,705)"/>
<path d="M0,0 L1,0 L1,2 L2,2 L2,6 L3,6 L3,9 L4,9 L4,12 L5,12 L5,18 L6,18 L6,25 L7,25 L7,27 L6,27 L6,26 L5,26 L5,22 L4,22 L4,18 L3,18 L3,16 L2,16 L2,7 L1,7 L1,4 L0,4 Z " fill="#D89042" transform="translate(722,476)"/>
<path d="M0,0 L7,0 L7,1 L6,1 L6,2 L4,2 L4,3 L2,3 L2,4 L0,4 L0,5 L-2,5 L-2,6 L-3,6 L-3,7 L-5,7 L-5,8 L-6,8 L-6,9 L-8,9 L-8,6 L-7,6 L-7,5 L-5,5 L-5,4 L-3,4 L-3,2 L-2,2 L-2,1 L0,1 Z " fill="#FCF3D5" transform="translate(546,550)"/>
<path d="M0,0 L1,0 L1,3 L2,3 L2,5 L3,5 L3,8 L5,8 L5,9 L6,9 L6,11 L7,11 L7,13 L8,13 L8,14 L9,14 L9,16 L10,16 L10,17 L11,17 L11,20 L12,20 L12,22 L11,22 L11,21 L10,21 L10,19 L9,19 L9,18 L8,18 L8,17 L7,17 L7,16 L6,16 L6,14 L5,14 L5,12 L3,12 L3,10 L2,10 L2,6 L1,6 L1,4 L0,4 Z " fill="#FAECC7" transform="translate(618,464)"/>
<path d="M0,0 L1,0 L1,1 L3,1 L3,2 L5,2 L5,3 L8,3 L8,4 L10,4 L10,6 L12,6 L12,7 L14,7 L14,8 L17,8 L17,9 L20,9 L20,10 L22,10 L22,11 L17,11 L17,10 L14,10 L14,9 L10,9 L10,8 L9,8 L9,7 L7,7 L7,4 L4,4 L4,3 L1,3 L1,2 L0,2 Z " fill="#FBEAC7" transform="translate(532,630)"/>
<path d="M0,0 L2,0 L2,1 L3,1 L3,3 L4,3 L4,6 L5,6 L5,7 L6,7 L6,8 L10,8 L10,4 L12,4 L12,5 L15,5 L15,6 L13,6 L13,7 L12,7 L12,8 L11,8 L11,9 L10,9 L10,10 L9,10 L9,11 L8,11 L8,12 L6,12 L6,11 L5,11 L5,9 L4,9 L4,7 L3,7 L3,6 L2,6 L2,3 L1,3 L1,1 L0,1 Z " fill="#D39045" transform="translate(481,570)"/>
<path d="M0,0 L2,0 L2,1 L1,1 L1,2 L0,2 L0,3 L-1,3 L-1,4 L-2,4 L-2,5 L-3,5 L-3,6 L-5,6 L-5,8 L-9,8 L-9,10 L-14,10 L-14,9 L-15,9 L-15,5 L-14,5 L-14,7 L-13,7 L-13,9 L-11,9 L-11,8 L-10,8 L-10,7 L-9,7 L-9,6 L-7,6 L-7,5 L-6,5 L-6,4 L-5,4 L-5,3 L-4,3 L-4,2 L-3,2 L-3,1 L0,1 Z " fill="#FBF0D1" transform="translate(690,614)"/>
<path d="M0,0 L7,0 L7,1 L14,1 L14,2 L16,2 L16,3 L18,3 L18,4 L20,4 L20,5 L22,5 L22,6 L18,6 L18,5 L15,5 L15,4 L14,4 L14,3 L12,3 L12,2 L-6,2 L-6,1 L0,1 Z " fill="#F7DEB1" transform="translate(610,584)"/>
<path d="M0,0 L1,0 L1,10 L0,10 L0,2 L-1,2 L-1,3 L-3,3 L-3,4 L-5,4 L-5,5 L-7,5 L-7,6 L-9,6 L-9,7 L-11,7 L-11,8 L-13,8 L-13,9 L-15,9 L-15,10 L-17,10 L-17,8 L-16,8 L-16,7 L-12,7 L-12,5 L-9,5 L-9,4 L-6,4 L-6,3 L-4,3 L-4,1 L0,1 Z " fill="#F6E4B7" transform="translate(545,400)"/>
<path d="M0,0 L2,0 L2,1 L3,1 L3,4 L5,4 L5,7 L6,7 L6,9 L7,9 L7,12 L8,12 L8,17 L7,17 L7,14 L6,14 L6,12 L5,12 L5,9 L4,9 L4,7 L2,7 L2,5 L1,5 L1,3 L-2,3 L-2,5 L-3,5 L-3,2 L1,2 L1,1 L0,1 Z " fill="#DC9340" transform="translate(535,497)"/>
<path d="M0,0 L2,0 L2,2 L0,2 L0,3 L-1,3 L-1,7 L-2,7 L-2,8 L-3,8 L-3,9 L-4,9 L-4,10 L-5,10 L-5,11 L-6,11 L-6,13 L-7,13 L-7,15 L-8,15 L-8,17 L-10,17 L-10,15 L-9,15 L-9,13 L-8,13 L-8,11 L-7,11 L-7,9 L-6,9 L-6,7 L-5,7 L-5,6 L-4,6 L-4,5 L-3,5 L-3,4 L-2,4 L-2,2 L-1,2 L-1,1 L0,1 Z " fill="#F8E4B7" transform="translate(634,397)"/>
<path d="M0,0 L1,0 L1,16 L0,16 L0,17 L-1,17 L-1,20 L-2,20 L-2,22 L-3,22 L-3,18 L-2,18 L-2,11 L-1,11 L-1,6 L0,6 Z " fill="#FBE6BD" transform="translate(544,410)"/>
<path d="M0,0 L1,0 L1,6 L0,6 L0,8 L-1,8 L-1,10 L-2,10 L-2,12 L-3,12 L-3,14 L-4,14 L-4,16 L-5,16 L-5,19 L-6,19 L-6,21 L-8,21 L-8,19 L-7,19 L-7,17 L-6,17 L-6,15 L-5,15 L-5,12 L-4,12 L-4,10 L-3,10 L-3,8 L-2,8 L-2,5 L-1,5 L-1,2 L0,2 Z " fill="#FCE8BE" transform="translate(723,560)"/>
<path d="M0,0 L1,0 L1,3 L2,3 L2,6 L3,6 L3,10 L4,10 L4,12 L5,12 L5,14 L6,14 L6,17 L7,17 L7,19 L6,19 L6,18 L5,18 L5,16 L3,16 L3,14 L1,14 L1,4 L0,4 Z " fill="#FBE9BC" transform="translate(475,554)"/>
<path d="M0,0 L2,0 L2,1 L3,1 L3,2 L4,2 L4,3 L5,3 L5,4 L6,4 L6,5 L7,5 L7,6 L8,6 L8,7 L9,7 L9,8 L10,8 L10,9 L11,9 L11,10 L8,10 L8,8 L6,8 L6,7 L5,7 L5,8 L4,8 L4,6 L1,6 L1,5 L0,5 Z " fill="#FCF1D2" transform="translate(616,538)"/>
<path d="M0,0 L1,0 L1,1 L2,1 L2,2 L3,2 L3,3 L4,3 L4,4 L6,4 L6,5 L7,5 L7,6 L8,6 L8,7 L9,7 L9,8 L10,8 L10,9 L11,9 L11,10 L12,10 L12,11 L13,11 L13,12 L14,12 L14,13 L15,13 L15,14 L16,14 L16,15 L17,15 L17,16 L15,16 L15,15 L14,15 L14,14 L13,14 L13,13 L12,13 L12,12 L11,12 L11,11 L10,11 L10,10 L7,10 L7,9 L6,9 L6,7 L5,7 L5,6 L4,6 L4,5 L3,5 L3,4 L2,4 L2,3 L1,3 L1,2 L0,2 Z " fill="#CF924A" transform="translate(679,416)"/>
<path d="M0,0 L8,0 L8,1 L10,1 L10,2 L12,2 L12,3 L15,3 L15,4 L16,4 L16,5 L18,5 L18,6 L20,6 L20,8 L18,8 L18,7 L16,7 L16,6 L14,6 L14,5 L12,5 L12,4 L10,4 L10,3 L7,3 L7,2 L4,2 L4,1 L0,1 Z " fill="#D7944B" transform="translate(504,512)"/>
<path d="M0,0 L15,0 L15,1 L16,1 L16,2 L18,2 L18,3 L20,3 L20,4 L16,4 L16,3 L10,3 L10,2 L5,2 L5,1 L0,1 Z " fill="#FCE8C2" transform="translate(616,390)"/>
<path d="M0,0 L5,0 L5,22 L4,22 L4,2 L1,2 L1,3 L-1,3 L-1,4 L-2,4 L-2,1 L0,1 Z " fill="#F8E5C1" transform="translate(556,546)"/>
<path d="M0,0 L1,0 L1,5 L2,5 L2,7 L1,7 L1,9 L-1,9 L-1,10 L-2,10 L-2,11 L-3,11 L-3,12 L-5,12 L-5,10 L-4,10 L-4,8 L-3,8 L-3,7 L-2,7 L-2,3 L-1,3 L-1,1 L0,1 Z " fill="#E08B34" transform="translate(679,465)"/>
<path d="M0,0 L1,0 L1,2 L0,2 L0,6 L-1,6 L-1,7 L-4,7 L-4,9 L-5,9 L-5,10 L-7,10 L-7,11 L-8,11 L-8,12 L-9,12 L-9,11 L-11,11 L-11,10 L-9,10 L-9,9 L-7,9 L-7,8 L-6,8 L-6,7 L-5,7 L-5,5 L-4,5 L-4,4 L-3,4 L-3,3 L-2,3 L-2,2 L-1,2 L-1,1 L0,1 Z " fill="#DF892E" transform="translate(588,484)"/>
<path d="M0,0 L1,0 L1,1 L2,1 L2,4 L1,4 L1,5 L0,5 L0,7 L-1,7 L-1,9 L-2,9 L-2,11 L-3,11 L-3,12 L-5,12 L-5,10 L-4,10 L-4,6 L-3,6 L-3,2 L-2,2 L-2,4 L-1,4 L-1,2 L0,2 Z " fill="#FBF3DB" transform="translate(675,468)"/>
<path d="M0,0 L2,0 L2,1 L3,1 L3,2 L4,2 L4,3 L3,3 L3,6 L2,6 L2,8 L0,8 L0,7 L-1,7 L-1,6 L-2,6 L-2,5 L-3,5 L-3,3 L-2,3 L-2,2 L-1,2 L-1,1 L0,1 Z " fill="#E5E5E5" transform="translate(347,759)"/>
<path d="M0,0 L2,0 L2,1 L3,1 L3,2 L4,2 L4,3 L5,3 L5,4 L6,4 L6,5 L7,5 L7,6 L9,6 L9,8 L10,8 L10,9 L12,9 L12,11 L13,11 L13,12 L15,12 L15,15 L14,15 L14,14 L13,14 L13,13 L12,13 L12,12 L10,12 L10,11 L9,11 L9,9 L8,9 L8,8 L7,8 L7,7 L6,7 L6,6 L5,6 L5,5 L4,5 L4,4 L3,4 L3,3 L2,3 L2,2 L1,2 L1,1 L0,1 Z " fill="#CF9447" transform="translate(624,544)"/>
<path d="M0,0 L1,0 L1,7 L0,7 L0,9 L-1,9 L-1,13 L-2,13 L-2,18 L-3,18 L-3,12 L-2,12 L-2,7 L-3,7 L-3,5 L-2,5 L-2,2 L-1,2 L-1,1 L0,1 Z " fill="#E9821B" transform="translate(725,537)"/>
<path d="M0,0 L1,0 L1,4 L0,4 L0,12 L-1,12 L-1,13 L-2,13 L-2,22 L-3,22 L-3,24 L-4,24 L-4,20 L-3,20 L-3,11 L-2,11 L-2,7 L-1,7 L-1,3 L0,3 Z " fill="#E1851F" transform="translate(477,483)"/>
<path d="M0,0 L1,0 L1,7 L0,7 L0,11 L-1,11 L-1,13 L-2,13 L-2,14 L-3,14 L-3,17 L-4,17 L-4,18 L-7,18 L-7,17 L-6,17 L-6,16 L-5,16 L-5,14 L-4,14 L-4,12 L-3,12 L-3,11 L-2,11 L-2,8 L-1,8 L-1,4 L0,4 Z " fill="#D89044" transform="translate(596,466)"/>
<path d="M0,0 L3,0 L3,1 L4,1 L4,2 L5,2 L5,3 L6,3 L6,5 L7,5 L7,6 L8,6 L8,7 L9,7 L9,8 L10,8 L10,9 L11,9 L11,10 L12,10 L12,11 L13,11 L13,13 L14,13 L14,15 L13,15 L13,14 L12,14 L12,13 L11,13 L11,12 L10,12 L10,10 L9,10 L9,9 L8,9 L8,8 L7,8 L7,7 L6,7 L6,6 L5,6 L5,5 L4,5 L4,4 L3,4 L3,3 L2,3 L2,2 L1,2 L1,1 L0,1 Z " fill="#FCECC0" transform="translate(690,425)"/>
<path d="M0,0 L2,0 L2,2 L0,2 L0,4 L-1,4 L-1,5 L-3,5 L-3,6 L-4,6 L-4,7 L-10,7 L-10,6 L-8,6 L-8,4 L-6,4 L-6,3 L-4,3 L-4,2 L-2,2 L-2,1 L0,1 Z " fill="#D8943F" transform="translate(536,406)"/>
<path d="M0,0 L3,0 L3,2 L2,2 L2,3 L1,3 L1,28 L0,28 Z " fill="#D0984E" transform="translate(577,540)"/>
<path d="M0,0 L1,0 L1,4 L0,4 L0,5 L-1,5 L-1,6 L-10,6 L-10,5 L-8,5 L-8,4 L-6,4 L-6,3 L-4,3 L-4,2 L-2,2 L-2,1 L0,1 Z " fill="#FBF1D1" transform="translate(560,530)"/>
<path d="M0,0 L1,0 L1,13 L0,13 L0,18 L-1,18 L-1,20 L-2,20 L-2,12 L-1,12 L-1,6 L0,6 Z " fill="#D5974D" transform="translate(473,490)"/>
<path d="M0,0 L1,0 L1,18 L0,18 L0,22 L-1,22 L-1,25 L-2,25 L-2,16 L0,16 Z " fill="#E18220" transform="translate(599,448)"/>
<path d="M0,0 L3,0 L3,4 L2,4 L2,5 L0,5 L0,7 L-1,7 L-1,5 L-2,5 L-2,6 L-3,6 L-3,5 L-5,5 L-5,3 L-3,3 L-3,1 L0,1 Z " fill="#E5861D" transform="translate(541,405)"/>
<path d="M0,0 L3,0 L3,1 L2,1 L2,2 L1,2 L1,3 L0,3 L0,4 L-1,4 L-1,5 L-2,5 L-2,6 L-3,6 L-3,7 L-4,7 L-4,8 L-5,8 L-5,9 L-6,9 L-6,10 L-7,10 L-7,5 L-6,5 L-6,4 L-3,4 L-3,2 L0,2 Z " fill="#FBECC4" transform="translate(507,582)"/>
<path d="M0,0 L4,0 L4,1 L3,1 L3,2 L2,2 L2,3 L1,3 L1,4 L0,4 L0,5 L-1,5 L-1,6 L-2,6 L-2,7 L-5,7 L-5,8 L-7,8 L-7,7 L-6,7 L-6,5 L-4,5 L-4,4 L-3,4 L-3,2 L-1,2 L-1,1 L0,1 Z " fill="#DD8526" transform="translate(523,571)"/>
<path d="M0,0 L2,0 L2,1 L1,1 L1,2 L0,2 L0,4 L-1,4 L-1,5 L-2,5 L-2,6 L-4,6 L-4,8 L-6,8 L-6,9 L-9,9 L-9,10 L-11,10 L-11,9 L-10,9 L-10,8 L-9,8 L-9,7 L-7,7 L-7,6 L-6,6 L-6,5 L-5,5 L-5,4 L-4,4 L-4,3 L-2,3 L-2,2 L-1,2 L-1,1 L0,1 Z " fill="#FAE5BA" transform="translate(521,553)"/>
<path d="M0,0 L5,0 L5,1 L6,1 L6,3 L7,3 L7,4 L10,4 L10,5 L11,5 L11,9 L10,9 L10,8 L9,8 L9,7 L7,7 L7,6 L6,6 L6,5 L5,5 L5,4 L4,4 L4,3 L3,3 L3,2 L2,2 L2,1 L0,1 Z " fill="#F9EDC3" transform="translate(602,544)"/>
<path d="M0,0 L1,0 L1,1 L3,1 L3,2 L4,2 L4,3 L5,3 L5,9 L1,9 L1,7 L2,7 L2,5 L0,5 Z " fill="#F9F8E9" transform="translate(611,534)"/>
<path d="M0,0 L2,0 L2,1 L4,1 L4,2 L6,2 L6,3 L8,3 L8,4 L10,4 L10,6 L12,6 L12,7 L14,7 L14,8 L15,8 L15,9 L13,9 L13,8 L10,8 L10,7 L7,7 L7,6 L6,6 L6,4 L4,4 L4,3 L2,3 L2,2 L1,2 L1,1 L0,1 Z " fill="#FBEAC1" transform="translate(596,525)"/>
<path d="M0,0 L1,0 L1,17 L0,17 L0,18 L-3,18 L-3,17 L-4,17 L-4,14 L0,14 Z " fill="#D58E41" transform="translate(557,440)"/>
<path d="M0,0 L2,0 L2,2 L3,2 L3,6 L-11,6 L-11,5 L-2,5 L-2,4 L-1,4 L-1,3 L0,3 L0,2 L-1,2 L-1,1 L0,1 Z " fill="#E3E3E3" transform="translate(899,749)"/>
<path d="M0,0 L2,0 L2,1 L5,1 L5,3 L6,3 L6,5 L7,5 L7,6 L8,6 L8,7 L9,7 L9,8 L10,8 L10,11 L9,11 L9,10 L8,10 L8,9 L7,9 L7,8 L6,8 L6,7 L5,7 L5,6 L4,6 L4,5 L3,5 L3,4 L2,4 L2,2 L1,2 L1,1 L0,1 Z " fill="#D48C3E" transform="translate(502,603)"/>
<path d="M0,0 L1,0 L1,1 L2,1 L2,2 L3,2 L3,3 L4,3 L4,4 L5,4 L5,5 L6,5 L6,6 L7,6 L7,7 L8,7 L8,9 L9,9 L9,10 L6,10 L6,8 L4,8 L4,7 L2,7 L2,4 L0,4 Z " fill="#FAEBCD" transform="translate(496,598)"/>
<path d="M0,0 L3,0 L3,1 L9,1 L9,2 L7,2 L7,3 L5,3 L5,4 L3,4 L3,5 L0,5 L0,6 L-3,6 L-3,5 L-4,5 L-4,4 L1,4 L1,1 L0,1 Z " fill="#DB892A" transform="translate(534,538)"/>
<path d="M0,0 L5,0 L5,1 L7,1 L7,2 L10,2 L10,7 L8,7 L8,4 L7,4 L7,3 L0,3 Z " fill="#FCF2D7" transform="translate(579,388)"/>
<path d="M0,0 L1,0 L1,2 L2,2 L2,3 L3,3 L3,10 L-1,10 L-1,6 L0,6 L0,2 L-1,2 L-1,1 L0,1 Z " fill="#F58107" transform="translate(627,574)"/>
<path d="M0,0 L1,0 L1,16 L0,16 L0,18 L-1,18 L-1,19 L-2,19 L-2,18 L-5,18 L-5,19 L-6,19 L-6,18 L-7,18 L-7,16 L-5,16 L-5,17 L-2,17 L-2,16 L-1,16 L-1,15 L0,15 Z " fill="#FDF1D3" transform="translate(585,441)"/>
<path d="M0,0 L1,0 L1,4 L0,4 L0,5 L-1,5 L-1,6 L-2,6 L-2,8 L-3,8 L-3,10 L-4,10 L-4,11 L-5,11 L-5,12 L-6,12 L-6,14 L-7,14 L-7,9 L-4,9 L-4,8 L-5,8 L-5,7 L-3,7 L-3,3 L-2,3 L-2,2 L0,2 Z " fill="#FCF0CC" transform="translate(499,433)"/>
<path d="M0,0 L2,0 L2,1 L6,1 L6,2 L7,2 L7,6 L8,6 L8,8 L9,8 L9,9 L10,9 L10,11 L9,11 L9,10 L8,10 L8,9 L7,9 L7,7 L6,7 L6,6 L5,6 L5,5 L4,5 L4,4 L3,4 L3,3 L2,3 L2,2 L1,2 L1,1 L0,1 Z " fill="#FCEFCD" transform="translate(620,560)"/>
<path d="M0,0 L2,0 L2,2 L1,2 L1,3 L0,3 L0,6 L-1,6 L-1,7 L-2,7 L-2,9 L-3,9 L-3,11 L-4,11 L-4,13 L-5,13 L-5,15 L-6,15 L-6,10 L-5,10 L-5,8 L-4,8 L-4,7 L-3,7 L-3,5 L-1,5 L-1,2 L0,2 Z " fill="#FDF1CF" transform="translate(488,449)"/>
<path d="M0,0 L2,0 L2,2 L5,2 L5,5 L6,5 L6,6 L7,6 L7,12 L6,12 L6,10 L5,10 L5,8 L4,8 L4,7 L3,7 L3,5 L2,5 L2,3 L1,3 L1,1 L0,1 Z " fill="#FDF0CE" transform="translate(710,449)"/>
<path d="M0,0 L2,0 L2,1 L4,1 L4,0 L7,0 L7,1 L6,1 L6,2 L5,2 L5,3 L4,3 L4,4 L3,4 L3,5 L2,5 L2,6 L1,6 L1,5 L-1,5 L-1,1 L0,1 Z " fill="#101010" transform="translate(300,722)"/>
<path d="M0,0 L1,0 L1,2 L0,2 L0,7 L1,7 L1,8 L2,8 L2,11 L1,11 L1,10 L0,10 L0,9 L-1,9 L-1,8 L-2,8 L-2,7 L-3,7 L-3,6 L-4,6 L-4,4 L-3,4 L-3,3 L-2,3 L-2,2 L-1,2 L-1,1 L0,1 Z " fill="#D58C42" transform="translate(500,592)"/>
<path d="M0,0 L1,0 L1,1 L2,1 L2,3 L3,3 L3,15 L1,15 L1,14 L0,14 L0,13 L1,13 L1,10 L2,10 L2,6 L1,6 L1,5 L0,5 Z " fill="#D39352" transform="translate(635,578)"/>
<path d="M0,0 L2,0 L2,1 L3,1 L3,0 L9,0 L9,1 L7,1 L7,4 L4,4 L4,3 L2,3 L2,7 L1,7 L1,2 L0,2 Z " fill="#E5841A" transform="translate(489,571)"/>
<path d="M0,0 L1,0 L1,1 L4,1 L4,5 L6,5 L6,6 L7,6 L7,7 L9,7 L9,9 L7,9 L7,8 L4,8 L4,7 L3,7 L3,6 L2,6 L2,5 L1,5 L1,3 L2,3 L2,2 L0,2 Z " fill="#FDF6DC" transform="translate(510,522)"/>
<path d="M0,0 L2,0 L2,2 L3,2 L3,3 L-1,3 L-1,6 L-3,6 L-3,5 L-4,5 L-4,7 L-3,7 L-3,9 L-4,9 L-4,12 L-5,12 L-5,4 L-3,4 L-3,2 L-1,2 L-1,1 L0,1 Z " fill="#E5821D" transform="translate(533,496)"/>
<path d="M0,0 L1,0 L1,2 L0,2 L0,4 L-2,4 L-2,5 L-1,5 L-1,6 L-2,6 L-2,7 L-3,7 L-3,5 L-4,5 L-4,6 L-5,6 L-5,7 L-7,7 L-7,6 L-8,6 L-8,5 L-7,5 L-7,4 L-5,4 L-5,3 L-4,3 L-4,2 L-2,2 L-2,1 L0,1 Z " fill="#EDEDED" transform="translate(566,743)"/>
<path d="M0,0 L7,0 L7,8 L6,8 L6,5 L5,5 L5,2 L-4,2 L-4,1 L0,1 Z " fill="#D68B2E" transform="translate(630,603)"/>
<path d="M0,0 L2,0 L2,1 L5,1 L5,2 L9,2 L9,3 L16,3 L16,4 L3,4 L3,3 L2,3 L2,2 L0,2 Z " fill="#D08531" transform="translate(517,533)"/>
<path d="M0,0 L1,0 L1,10 L0,10 L0,13 L-1,13 L-1,14 L-2,14 L-2,16 L-3,16 L-3,9 L-1,9 L-1,8 L0,8 Z " fill="#FCF1CF" transform="translate(594,464)"/>
<path d="M0,0 L4,0 L4,1 L10,1 L10,2 L14,2 L14,5 L12,5 L12,6 L11,6 L11,5 L10,5 L10,3 L8,3 L8,2 L2,2 L2,1 L0,1 Z " fill="#D2924B" transform="translate(622,392)"/>
<path d="M0,0 L2,0 L2,1 L1,1 L1,2 L0,2 L0,3 L-1,3 L-1,4 L-2,4 L-2,6 L-3,6 L-3,7 L-4,7 L-4,8 L-5,8 L-5,9 L-6,9 L-6,10 L-7,10 L-7,11 L-8,11 L-8,7 L-6,7 L-6,6 L-4,6 L-4,4 L-3,4 L-3,3 L-2,3 L-2,1 L0,1 Z " fill="#D6903E" transform="translate(702,597)"/>
<path d="M0,0 L2,0 L2,3 L1,3 L1,5 L-1,5 L-1,7 L-2,7 L-2,6 L-4,6 L-4,7 L-7,7 L-7,6 L-5,6 L-5,5 L-4,5 L-4,4 L-3,4 L-3,3 L-2,3 L-2,2 L-1,2 L-1,1 L0,1 Z " fill="#F7E6C2" transform="translate(494,576)"/>
<path d="M0,0 L1,0 L1,3 L0,3 L0,5 L-2,5 L-2,6 L-3,6 L-3,7 L-6,7 L-6,8 L-8,8 L-8,7 L-7,7 L-7,6 L-6,6 L-6,5 L-5,5 L-5,4 L-4,4 L-4,3 L-2,3 L-2,1 L0,1 Z " fill="#FCE7C7" transform="translate(509,563)"/>
<path d="M0,0 L1,0 L1,1 L3,1 L3,2 L4,2 L4,3 L5,3 L5,4 L6,4 L6,5 L7,5 L7,6 L8,6 L8,7 L9,7 L9,8 L10,8 L10,9 L11,9 L11,10 L9,10 L9,9 L8,9 L8,8 L6,8 L6,7 L5,7 L5,6 L3,6 L3,4 L2,4 L2,2 L0,2 Z " fill="#D88B3F" transform="translate(608,550)"/>
<path d="M0,0 L2,0 L2,1 L1,1 L1,3 L-1,3 L-1,4 L-4,4 L-4,8 L-6,8 L-6,6 L-8,6 L-8,5 L-7,5 L-7,4 L-5,4 L-5,3 L-4,3 L-4,2 L-2,2 L-2,1 L0,1 Z " fill="#DA9446" transform="translate(548,553)"/>
<path d="M0,0 L4,0 L4,1 L3,1 L3,2 L1,2 L1,3 L0,3 L0,4 L-1,4 L-1,5 L-3,5 L-3,6 L-4,6 L-4,7 L-5,7 L-5,8 L-6,8 L-6,4 L-4,4 L-4,3 L-1,3 L-1,1 L0,1 Z " fill="#FEEFCC" transform="translate(534,559)"/>
<path d="M0,0 L1,0 L1,6 L2,6 L2,9 L3,9 L3,10 L4,10 L4,16 L3,16 L3,14 L2,14 L2,12 L1,12 L1,8 L0,8 Z " fill="#DB8B33" transform="translate(477,552)"/>
<path d="M0,0 L1,0 L1,2 L4,2 L4,5 L1,5 L1,3 L0,3 L0,4 L-9,4 L-9,3 L-3,3 L-3,2 L-2,2 L-2,1 L-1,1 L-1,2 L0,2 Z " fill="#F5D799" transform="translate(535,532)"/>
<path d="M0,0 L1,0 L1,11 L0,11 L0,16 L-2,16 L-2,17 L-4,17 L-4,16 L-3,16 L-3,14 L-2,14 L-2,12 L-1,12 L-1,10 L0,10 Z " fill="#D59A57" transform="translate(543,518)"/>
<path d="M0,0 L1,0 L1,1 L2,1 L2,2 L3,2 L3,3 L4,3 L4,5 L5,5 L5,6 L6,6 L6,7 L7,7 L7,8 L9,8 L9,9 L10,9 L10,10 L6,10 L6,9 L5,9 L5,7 L4,7 L4,6 L3,6 L3,4 L0,4 Z " fill="#D3913D" transform="translate(624,480)"/>
<path d="M0,0 L1,0 L1,15 L-1,15 L-1,14 L-3,14 L-3,12 L-2,12 L-2,11 L0,11 Z " fill="#E3841F" transform="translate(555,624)"/>
<path d="M0,0 L1,0 L1,1 L3,1 L3,2 L4,2 L4,3 L5,3 L5,4 L7,4 L7,5 L8,5 L8,6 L10,6 L10,7 L7,7 L7,6 L6,6 L6,5 L1,5 L1,4 L0,4 Z " fill="#FBEDC3" transform="translate(522,623)"/>
<path d="M0,0 L2,0 L2,1 L6,1 L6,4 L8,4 L8,5 L10,5 L10,7 L11,7 L11,8 L9,8 L9,7 L8,7 L8,6 L7,6 L7,5 L5,5 L5,4 L3,4 L3,3 L2,3 L2,2 L1,2 L1,1 L0,1 Z " fill="#D29447" transform="translate(518,619)"/>
<path d="M0,0 L2,0 L2,7 L1,7 L1,15 L0,15 L0,2 L-2,2 L-2,1 L0,1 Z " fill="#FCF7DF" transform="translate(638,601)"/>
<path d="M0,0 L1,0 L1,1 L0,1 Z M-1,1 L0,1 L0,2 L-1,2 Z M-4,2 L-1,2 L-1,3 L-2,3 L-2,4 L-3,4 L-3,5 L-4,5 L-4,4 L-5,4 L-5,5 L-6,5 L-6,6 L-7,6 L-7,7 L-9,7 L-9,8 L-11,8 L-11,7 L-10,7 L-10,6 L-9,6 L-9,5 L-8,5 L-8,4 L-7,4 L-7,3 L-4,3 Z M-5,5 L-4,5 L-4,7 L-5,7 Z " fill="#FBF6E2" transform="translate(507,568)"/>
<path d="M0,0 L2,0 L2,1 L4,1 L4,2 L5,2 L5,3 L8,3 L8,8 L7,8 L7,7 L6,7 L6,6 L5,6 L5,4 L4,4 L4,3 L1,3 L1,2 L-1,2 L-1,1 L0,1 Z " fill="#E8851E" transform="translate(612,557)"/>
<path d="M0,0 L2,0 L2,1 L1,1 L1,2 L-1,2 L-1,3 L-3,3 L-3,4 L-4,4 L-4,5 L-6,5 L-6,6 L-7,6 L-7,7 L-8,7 L-8,8 L-10,8 L-10,6 L-9,6 L-9,5 L-8,5 L-8,4 L-5,4 L-5,2 L-3,2 L-3,1 L0,1 Z " fill="#D99343" transform="translate(534,543)"/>
<path d="M0,0 L1,0 L1,1 L2,1 L2,2 L3,2 L3,3 L4,3 L4,4 L5,4 L5,5 L6,5 L6,6 L7,6 L7,7 L9,7 L9,10 L8,10 L8,8 L5,8 L5,7 L3,7 L3,6 L2,6 L2,3 L1,3 L1,2 L0,2 Z " fill="#D78F3F" transform="translate(546,482)"/>
<path d="M0,0 L2,0 L2,2 L-1,2 L-1,6 L-2,6 L-2,7 L0,7 L0,9 L-1,9 L-1,8 L-4,8 L-4,3 L-3,3 L-3,2 L-2,2 L-2,1 L0,1 Z " fill="#FBFAF0" transform="translate(671,408)"/>
<path d="M0,0 L3,0 L3,1 L4,1 L4,2 L5,2 L5,6 L2,6 L2,5 L1,5 L1,3 L0,3 Z " fill="#FCF5E1" transform="translate(659,616)"/>
<path d="M0,0 L1,0 L1,2 L4,2 L4,4 L1,4 L1,7 L-4,7 L-4,6 L-2,6 L-2,4 L-1,4 L-1,2 L0,2 Z " fill="#E68216" transform="translate(543,532)"/>
<path d="M0,0 L1,0 L1,13 L2,13 L2,14 L5,14 L5,15 L4,15 L4,16 L1,16 L1,15 L0,15 Z " fill="#C78B4B" transform="translate(579,442)"/>
<path d="M0,0 L4,0 L4,2 L3,2 L3,3 L5,3 L5,4 L-2,4 L-2,1 L0,1 Z " fill="#F3810D" transform="translate(551,554)"/>
<path d="M0,0 L3,0 L3,1 L4,1 L4,3 L5,3 L5,6 L6,6 L6,8 L5,8 L5,7 L4,7 L4,6 L3,6 L3,5 L2,5 L2,4 L1,4 L1,2 L0,2 Z " fill="#FDEDCC" transform="translate(545,478)"/>
<path d="M0,0 L1,0 L1,1 L2,1 L2,6 L3,6 L3,8 L4,8 L4,11 L1,11 L1,10 L0,10 L0,8 L1,8 L1,2 L0,2 Z " fill="#FCFBE8" transform="translate(672,418)"/>
<path d="M0,0 L2,0 L2,1 L1,1 L1,2 L0,2 L0,3 L-1,3 L-1,6 L-2,6 L-2,7 L-5,7 L-5,8 L-6,8 L-6,9 L-7,9 L-7,10 L-9,10 L-9,9 L-8,9 L-8,8 L-7,8 L-7,7 L-6,7 L-6,6 L-4,6 L-4,5 L-3,5 L-3,4 L-2,4 L-2,2 L-1,2 L-1,1 L0,1 Z " fill="#E4841C" transform="translate(526,413)"/>
<path d="M0,0 L2,0 L2,1 L3,1 L3,2 L5,2 L5,3 L6,3 L6,4 L3,4 L3,7 L4,7 L4,10 L3,10 L3,8 L2,8 L2,5 L1,5 L1,2 L0,2 Z " fill="#CB9047" transform="translate(672,412)"/>
<path d="M0,0 L2,0 L2,1 L3,1 L3,2 L4,2 L4,3 L3,3 L3,4 L2,4 L2,6 L1,6 L1,7 L0,7 L0,6 L-1,6 L-1,4 L0,4 L0,3 L-1,3 L-1,1 L0,1 Z " fill="#F3F3F3" transform="translate(549,769)"/>
<path d="M0,0 L4,0 L4,1 L2,1 L2,2 L1,2 L1,3 L0,3 L0,5 L1,5 L1,6 L2,6 L2,7 L3,7 L3,8 L1,8 L1,7 L0,7 L0,6 L-1,6 L-1,5 L-2,5 L-2,1 L0,1 Z " fill="#F9DAA6" transform="translate(600,586)"/>
<path d="M0,0 L1,0 L1,2 L-2,2 L-2,3 L-4,3 L-4,4 L-5,4 L-5,5 L-8,5 L-8,6 L-10,6 L-10,5 L-9,5 L-9,4 L-10,4 L-10,3 L-6,3 L-6,2 L-3,2 L-3,1 L0,1 Z " fill="#E3851C" transform="translate(558,528)"/>
<path d="M0,0 L1,0 L1,1 L2,1 L2,2 L3,2 L3,4 L4,4 L4,5 L5,5 L5,6 L6,6 L6,8 L5,8 L5,7 L4,7 L4,9 L5,9 L5,10 L3,10 L3,6 L2,6 L2,4 L1,4 L1,3 L0,3 Z " fill="#DB9347" transform="translate(704,442)"/>
<path d="M0,0 L1,0 L1,1 L2,1 L2,2 L3,2 L3,4 L4,4 L4,5 L5,5 L5,6 L6,6 L6,7 L7,7 L7,9 L6,9 L6,8 L5,8 L5,7 L2,7 L2,6 L1,6 L1,5 L2,5 L2,4 L1,4 L1,3 L0,3 Z " fill="#D38F42" transform="translate(697,433)"/>
<path d="M0,0 L3,0 L3,1 L2,1 L2,2 L1,2 L1,3 L0,3 L0,4 L-1,4 L-1,5 L-2,5 L-2,6 L-4,6 L-4,8 L-5,8 L-5,4 L-4,4 L-4,3 L-1,3 L-1,1 L0,1 Z " fill="#FCEEBE" transform="translate(517,416)"/>
<path d="M0,0 L4,0 L4,2 L2,2 L2,3 L0,3 L0,4 L-1,4 L-1,5 L-2,5 L-2,6 L-4,6 L-4,4 L-2,4 L-2,1 L0,1 Z " fill="#FCF2D3" transform="translate(524,410)"/>
<path d="M0,0 L2,0 L2,1 L13,1 L13,2 L1,2 L1,3 L3,3 L3,4 L0,4 L0,2 L-1,2 L-1,1 L0,1 Z " fill="#CFCFCF" transform="translate(819,795)"/>
<path d="M0,0 L2,0 L2,1 L1,1 L1,2 L0,2 L0,3 L-1,3 L-1,4 L0,4 L0,5 L-1,5 L-1,6 L-2,6 L-2,7 L-3,7 L-3,8 L-4,8 L-4,9 L-5,9 L-5,6 L-4,6 L-4,5 L-3,5 L-3,3 L-2,3 L-2,2 L-1,2 L-1,1 L0,1 Z " fill="#1F1F1F" transform="translate(862,735)"/>
<path d="M0,0 L1,0 L1,1 L2,1 L2,7 L3,7 L3,8 L-1,8 L-1,6 L0,6 L0,5 L1,5 L1,2 L0,2 Z M-3,8 L-1,8 L-1,11 L-2,11 L-2,10 L-3,10 Z " fill="#FCFBEA" transform="translate(673,616)"/>
<path d="M0,0 L1,0 L1,4 L0,4 L0,5 L-1,5 L-1,7 L-2,7 L-2,8 L-5,8 L-5,7 L-4,7 L-4,6 L-3,6 L-3,4 L-2,4 L-2,2 L-1,2 L-1,1 L0,1 Z " fill="#F9E2B4" transform="translate(707,592)"/>
<path d="M0,0 L1,0 L1,2 L2,2 L2,3 L3,3 L3,5 L4,5 L4,6 L5,6 L5,8 L6,8 L6,10 L4,10 L4,9 L3,9 L3,7 L2,7 L2,4 L0,4 Z " fill="#FDECC4" transform="translate(656,586)"/>
<path d="M0,0 L2,0 L2,1 L5,1 L5,2 L6,2 L6,3 L7,3 L7,7 L6,7 L6,6 L5,6 L5,5 L4,5 L4,4 L3,4 L3,3 L2,3 L2,2 L1,2 L1,1 L0,1 Z " fill="#FBEAC0" transform="translate(613,553)"/>
<path d="M0,0 L5,0 L5,4 L6,4 L6,7 L5,7 L5,6 L4,6 L4,5 L3,5 L3,3 L2,3 L2,2 L1,2 L1,1 L0,1 Z " fill="#FBF1D2" transform="translate(704,441)"/>
<path d="M0,0 L2,0 L2,11 L1,11 L1,3 L-3,3 L-3,1 L0,1 Z " fill="#D78A36" transform="translate(556,397)"/>
<path d="M0,0 L1,0 L1,3 L0,3 L0,4 L-1,4 L-1,6 L0,6 L0,7 L-1,7 L-1,8 L-2,8 L-2,7 L-6,7 L-6,6 L-4,6 L-4,5 L-3,5 L-3,4 L-2,4 L-2,3 L-1,3 L-1,1 L0,1 Z " fill="#1D1D1D" transform="translate(552,772)"/>
<path d="M0,0 L2,0 L2,1 L3,1 L3,3 L1,3 L1,4 L-1,4 L-1,8 L-2,8 L-2,6 L-3,6 L-3,4 L-2,4 L-2,2 L0,2 Z " fill="#E98519" transform="translate(695,600)"/>
<path d="M0,0 L1,0 L1,3 L0,3 L0,4 L-7,4 L-7,3 L-8,3 L-8,2 L-9,2 L-9,1 L-7,1 L-7,2 L-4,2 L-4,3 L-2,3 L-2,2 L-1,2 L-1,1 L0,1 Z " fill="#FEFAE9" transform="translate(530,530)"/>
<path d="M0,0 L2,0 L2,1 L6,1 L6,2 L7,2 L7,3 L8,3 L8,4 L11,4 L11,5 L7,5 L7,4 L4,4 L4,3 L3,3 L3,2 L1,2 L1,1 L0,1 Z " fill="#F9DDAB" transform="translate(515,530)"/>
<path d="M0,0 L1,0 L1,1 L3,1 L3,4 L4,4 L4,10 L3,10 L3,7 L2,7 L2,6 L1,6 L1,2 L0,2 Z " fill="#FCEAC1" transform="translate(532,522)"/>
<path d="M0,0 L6,0 L6,4 L7,4 L7,5 L5,5 L5,4 L4,4 L4,3 L2,3 L2,2 L1,2 L1,1 L0,1 Z " fill="#FBEBC3" transform="translate(551,486)"/>
<path d="M0,0 L4,0 L4,2 L3,2 L3,3 L2,3 L2,4 L1,4 L1,5 L0,5 L0,6 L-1,6 L-1,1 L0,1 Z " fill="#FCF2D3" transform="translate(587,480)"/>
<path d="M0,0 L1,0 L1,4 L0,4 L0,6 L-1,6 L-1,8 L-2,8 L-2,9 L-4,9 L-4,7 L-3,7 L-3,5 L-2,5 L-2,4 L-1,4 L-1,1 L0,1 Z " fill="#D89B50" transform="translate(489,451)"/>
<path d="M0,0 L2,0 L2,1 L3,1 L3,2 L2,2 L2,4 L3,4 L3,7 L4,7 L4,9 L3,9 L3,8 L2,8 L2,6 L1,6 L1,5 L-1,5 L-1,4 L0,4 Z " fill="#EDDDBB" transform="translate(670,410)"/>
<path d="M0,0 L2,0 L2,1 L1,1 L1,2 L0,2 L0,3 L2,3 L2,5 L1,5 L1,6 L0,6 L0,5 L-1,5 L-1,4 L-3,4 L-3,3 L-5,3 L-5,2 L-1,2 L-1,1 L0,1 Z " fill="#131313" transform="translate(726,754)"/>
<path d="M0,0 L1,0 L1,2 L2,2 L2,6 L1,6 L1,7 L0,7 L0,6 L-1,6 L-1,5 L-2,5 L-2,3 L-1,3 L-1,1 L0,1 Z " fill="#F2F2F2" transform="translate(468,697)"/>
<path d="M0,0 L1,0 L1,1 L2,1 L2,2 L3,2 L3,4 L1,4 L1,13 L0,13 Z " fill="#C79C60" transform="translate(659,620)"/>
<path d="M0,0 L1,0 L1,1 L2,1 L2,2 L3,2 L3,3 L4,3 L4,4 L5,4 L5,5 L6,5 L6,6 L7,6 L7,7 L8,7 L8,8 L6,8 L6,7 L5,7 L5,6 L2,6 L2,3 L1,3 L1,2 L0,2 Z " fill="#FCEBC5" transform="translate(505,608)"/>
<path d="M0,0 L2,0 L2,4 L1,4 L1,7 L0,7 L0,6 L-1,6 L-1,4 L-3,4 L-3,2 L-1,2 L-1,3 L0,3 Z " fill="#E48525" transform="translate(635,584)"/>
<path d="M0,0 L2,0 L2,1 L3,1 L3,3 L6,3 L6,5 L7,5 L7,7 L6,7 L6,6 L3,6 L3,4 L2,4 L2,3 L1,3 L1,1 L0,1 Z " fill="#FDFDEC" transform="translate(521,521)"/>
<path d="M0,0 L2,0 L2,1 L3,1 L3,2 L4,2 L4,5 L5,5 L5,6 L6,6 L6,8 L5,8 L5,7 L4,7 L4,6 L3,6 L3,5 L2,5 L2,4 L1,4 L1,2 L0,2 Z " fill="#E68422" transform="translate(700,440)"/>
<path d="M0,0 L2,0 L2,5 L3,5 L3,6 L2,6 L2,9 L1,9 L1,8 L0,8 Z " fill="#E3831B" transform="translate(686,432)"/>
<path d="M0,0 L3,0 L3,4 L2,4 L2,5 L0,5 L0,4 L-2,4 L-2,3 L-1,3 L-1,1 L0,1 Z " fill="#E5860C" transform="translate(525,419)"/>
<path d="M0,0 L2,0 L2,1 L1,1 L1,2 L0,2 L0,4 L-1,4 L-1,5 L-2,5 L-2,6 L-6,6 L-6,5 L-5,5 L-5,4 L-4,4 L-4,3 L-2,3 L-2,2 L-1,2 L-1,1 L0,1 Z " fill="#D99B49" transform="translate(524,413)"/>
<path d="M0,0 L1,0 L1,2 L2,2 L2,3 L1,3 L1,4 L2,4 L2,5 L1,5 L1,6 L0,6 L0,5 L-1,5 L-1,7 L-4,7 L-4,6 L-3,6 L-3,5 L-2,5 L-2,4 L-1,4 L-1,2 L0,2 Z " fill="#E5E5E5" transform="translate(365,772)"/>
<path d="M0,0 L3,0 L3,2 L2,2 L2,3 L1,3 L1,5 L-1,5 L-1,6 L-2,6 L-2,3 L-1,3 L-1,1 L0,1 Z " fill="#FCEFCC" transform="translate(701,600)"/>
<path d="M0,0 L4,0 L4,4 L3,4 L3,5 L1,5 L1,3 L0,3 Z " fill="#DF8E30" transform="translate(594,587)"/>
<path d="M0,0 L2,0 L2,1 L1,1 L1,3 L0,3 L0,5 L-1,5 L-1,7 L-2,7 L-2,8 L-3,8 L-3,3 L-2,3 L-2,2 L0,2 Z " fill="#D59046" transform="translate(715,576)"/>
<path d="M0,0 L4,0 L4,1 L3,1 L3,2 L1,2 L1,3 L-1,3 L-1,4 L-2,4 L-2,5 L-3,5 L-3,6 L-4,6 L-4,3 L-3,3 L-3,2 L0,2 Z " fill="#FAE5BB" transform="translate(516,574)"/>
<path d="M0,0 L2,0 L2,1 L5,1 L5,2 L3,2 L3,3 L2,3 L2,4 L1,4 L1,5 L-4,5 L-4,4 L0,4 Z " fill="#DB8B30" transform="translate(491,574)"/>
<path d="M0,0 L1,0 L1,3 L2,3 L2,4 L4,4 L4,6 L5,6 L5,8 L2,8 L2,6 L1,6 L1,4 L0,4 Z " fill="#E18621" transform="translate(616,468)"/>
<path d="M0,0 L1,0 L1,1 L4,1 L4,0 L6,0 L6,1 L5,1 L5,3 L4,3 L4,4 L1,4 L1,3 L-1,3 L-1,2 L0,2 Z " fill="#FBEFD7" transform="translate(553,457)"/>
<path d="M0,0 L1,0 L1,1 L2,1 L2,2 L5,2 L5,4 L4,4 L4,5 L3,5 L3,6 L2,6 L2,5 L1,5 L1,4 L0,4 Z " fill="#FDF2DA" transform="translate(565,456)"/>
<path d="M0,0 L3,0 L3,2 L1,2 L1,3 L-1,3 L-1,4 L-3,4 L-3,5 L-5,5 L-5,3 L-4,3 L-4,2 L0,2 Z " fill="#FDF3CC" transform="translate(533,405)"/>
</svg>
